<svg xmlns="http://www.w3.org/2000/svg" width="400" height="156.113">
    <g fill-rule="evenodd">
        <path fill="#29895e"
            d="M99.451 25.583c-.156.327-.399.638-.54.692-.141.054-.374.326-.518.605-.144.278-.41.662-.59.854a3.975 3.975 0 0 0-.567.849c-.13.275-.463.8-.74 1.167-.276.367-.662.967-.856 1.333-.194.367-.53.832-.746 1.034-.217.202-.394.464-.395.583-.001.119-.226.344-.5.501-.342.194-.499.413-.499.693 0 .347-.936 1.696-1.787 2.576-.117.121-.213.405-.213.631 0 .254-.123.455-.326.53-.302.112-.748.782-1.463 2.202-.162.321-.386.659-.498.75-.331.271-1.546 1.961-1.549 2.155-.002.098-.396.591-.875 1.095-.48.504-.985 1.108-1.122 1.342-.752 1.277-.957 1.588-1.375 2.08-.252.296-.459.623-.459.725 0 .103-.064.187-.142.187-.123 0-1.277 1.53-1.774 2.354-.092.152-.559.753-1.038 1.336l-1.458 1.779c-.323.396-.588.825-.588.953s-.15.313-.333.411c-.183.098-.333.26-.333.361 0 .1-.263.472-.584.828-.321.355-.583.778-.583.941 0 .163-.15.424-.333.581-.184.157-.334.392-.334.523 0 .13-.231.431-.513.669-.283.237-.584.686-.67.997-.086.311-.342.688-.57.837-.227.149-.413.376-.413.504s-.171.445-.379.705a7.727 7.727 0 0 0-.708 1.124c-.669 1.326-1.003 1.893-1.265 2.147-.148.143-.318.568-.378.944-.082.513-.209.721-.509.835-.4.152-.479.301-.675 1.278-.058.289-.251.657-.429.818-.212.191-.324.511-.324.922 0 .346-.101.73-.224.853-.442.442-.842 1.53-.796 2.164.029.409-.072.832-.283 1.179-.329.542-.697 2.681-.697 4.057 0 .392-.075.76-.167.816-.091.057-.166.399-.166.76 0 .423-.113.77-.316.973-.537.536-.587 5.904-.059 6.274.21.147.375.437.375.66 0 .218.066.438.146.488.081.049.202.973.269 2.051.101 1.628.189 2.077.52 2.642.294.504.398.931.398 1.636 0 .754.085 1.067.404 1.486.222.292.498.905.612 1.364.114.458.374 1.096.578 1.416.204.321.458.859.564 1.195.106.337.301.702.434.812a.754.754 0 0 1 .241.508c0 .169.225.537.501.819.275.281.608.772.741 1.089.133.318.322.577.421.577.098 0 .25.169.336.375.086.207.455.788.819 1.292.364.504.815 1.192 1.002 1.528.187.336.876 1.086 1.531 1.666a46.988 46.988 0 0 1 2.122 2.014c.512.527 1.013.959 1.114.959.101 0 .405.231.674.513.269.283.714.609.989.726.275.117.886.561 1.358.987.472.425.975.774 1.118.774.143 0 .536.187.874.416.337.229.706.417.82.417.113 0 .295.107.404.238.108.131.528.351.933.488.404.138.988.444 1.297.679.309.236.762.428 1.007.428.245 0 .8.185 1.234.41.772.402 2.5.924 3.056.924.154 0 .319.101.367.225.058.152.56.261 1.559.337.81.062 1.773.22 2.14.351.367.131 1.045.242 1.508.246.463.004.921.086 1.018.183.382.383 6.669-.025 7.003-.454.125-.16.323-.212.545-.141.481.152 1.515-.205 1.974-.683.21-.219.486-.398.612-.398.254 0 1.286-.51 1.434-.71.052-.069.467-.257.923-.418.456-.161 1.043-.46 1.303-.665.261-.205.61-.373.776-.373.166 0 .342-.066.392-.147.05-.081.587-.358 1.193-.616 1.162-.493 4.898-3.934 5.467-5.034.135-.263.364-.575.506-.693.143-.119.343-.524.445-.901.101-.376.321-.78.488-.897.167-.117.351-.456.409-.754a8.58 8.58 0 0 1 .323-1.125c.119-.321.311-.846.426-1.167.355-.99.428-4.343.108-4.962-.148-.287-.27-.65-.27-.808 0-.158-.131-.432-.291-.609-.21-.232-.299-.636-.317-1.44-.02-.899-.109-1.24-.454-1.749-.236-.348-.478-.906-.537-1.24-.06-.335-.244-.758-.41-.942-.166-.183-.46-.671-.654-1.083a29.864 29.864 0 0 0-.816-1.583 400.84 400.84 0 0 1-1.034-1.877c-.313-.574-.795-1.443-1.07-1.931l-.792-1.407c-.161-.287-.648-1.018-1.084-1.625-.435-.607-.872-1.248-.972-1.423-.206-.361-2.414-2.829-4.551-5.086-.789-.834-2.097-2.221-2.907-3.083l-2.417-2.573a31.972 31.972 0 0 1-1.822-2.166c-.483-.64-1.271-1.678-1.75-2.309-.479-.63-.947-1.268-1.038-1.416a1.484 1.484 0 0 0-.358-.395c-.106-.068-.475-.555-.821-1.083-.734-1.118-2.387-3.325-3.233-4.316-1.433-1.679-2.177-3.079-2.497-4.694-.38-1.921-.074-9.23.476-11.374.176-.683.371-1.73.434-2.326.063-.596.329-1.983.592-3.083.262-1.1.524-2.338.583-2.75.126-.886.626-2.582 1.105-3.75a92.39 92.39 0 0 0 .75-1.913c.224-.594.468-1.156.541-1.25.074-.094.231-.47.349-.837.118-.367.359-.863.536-1.102.408-.552.479-1.531.118-1.606-.16-.033-.366.172-.541.541m199.052 28.281c-.003.437-.479.774-.807.571-.077-.048-.14.138-.14.413 0 .341.068.473.216.417.308-.119.421.693.362 2.611-.07 2.237-.361 2.159-.476-.126-.071-1.422-.092-1.104-.093 1.417 0 1.787.026 2.781.058 2.208.033-.573.135-1.042.228-1.042s.115-.086.05-.192c-.068-.11-.046-.148.051-.087.114.07.158 4.28.134 12.733-.019 6.945.014 12.814.075 13.041.206.769 2.002 1.609 2.46 1.151.172-.172 1.252-.144 2.562.067.239.038.689-.051 1-.198l.567-.268V53.75h-3c-1.807 0-3.049-.066-3.122-.167-.068-.091-.124.035-.125.281m5.738.234c.277.277.338 31.879.062 32.155-.063.062-1.136.133-2.386.157-2.574.05-2.863-.055-2.679-.974.056-.28.102-7.462.102-15.96.001-12.046.046-15.469.206-15.534.57-.231 4.436-.103 4.695.156m-138.256.284c.207.264.193.329-.125.552l-.36.252v31.256l.417.392c.5.469 4.257.642 4.614.212.098-.119.469-.262.824-.319l.645-.103v-9.151c0-7.98-.032-9.162-.25-9.246-.138-.053-.25-.298-.25-.545 0-.247-.083-.531-.184-.633-.129-.128-.132-.276-.012-.491.159-.284.186-.273.34.133.092.242.244.467.336.5.093.032.187.415.209.851.033.649.096.791.353.791.586 0 .958.324.958.834 0 .317.116.55.333.666.184.098.334.329.334.514 0 .184.093.322.208.307.555-.072.816.051 1 .471.111.252.297.518.413.592.117.073.212.357.212.63 0 .303.105.537.268.6.35.134 1.065.799 1.065.99 0 .081.263.367.584.635.32.267.583.577.583.688 0 .11.142.238.316.284.187.049.362.294.43.602.062.287.185.521.271.521.087 0 .229.187.316.416.087.23.227.417.31.417.083 0 .191.15.239.333.048.184.197.334.332.334.136 0 .287.212.341.481.068.344.24.531.604.658.341.118.508.288.508.515 0 .186.196.467.436.624.397.26.428.356.341 1.087-.052.441-.042.809.022.819.065.01.339.029.61.042.551.027.853.661.523 1.097-.146.191-.124.217.105.131.175-.065.343-.008.429.146.078.14.249.279.379.31.73.171.991.328 1.013.609l.042.522c.009.115.152.264.319.332.166.068.258.196.203.284-.327.529 5.196.7 5.821.181.421-.349.381-30.646-.04-31.044-.712-.673-.78-.826-.468-1.054.242-.177-.185-.214-2.481-.214-2.215 0-2.738.042-2.599.21.224.269.061.43-.433.43H186v9.561c0 9.454.004 9.566.349 10.005.399.507.319.934-.174.934-.219 0-.372-.145-.44-.418-.058-.231-.191-.475-.295-.542-.233-.151-.607-.801-.607-1.055 0-.103-.177-.326-.394-.497-.218-.171-.438-.524-.49-.784a.952.952 0 0 0-.522-.669c-.235-.107-.427-.29-.427-.408 0-.117-.225-.4-.5-.627-.275-.227-.5-.498-.5-.603 0-.104-.154-.292-.341-.418-.188-.126-.364-.442-.391-.704-.034-.32-.221-.583-.576-.808-.289-.183-.527-.457-.53-.608-.002-.151-.263-.463-.579-.692-.315-.229-.576-.505-.578-.614-.003-.108-.147-.242-.32-.297-.174-.055-.406-.317-.516-.583-.11-.265-.305-.523-.434-.572-.142-.055-.235-.328-.235-.691 0-.637-.303-1.076-.742-1.076-.147 0-.338-.188-.425-.417-.087-.229-.254-.417-.371-.418-.116 0-.39-.263-.608-.583-.219-.32-.5-.582-.625-.582-.126 0-.23-.169-.232-.375-.003-.46-.156-.7-.539-.841-.306-.112-.413-.784-.125-.784a.165.165 0 0 0 .167-.162c0-.089-.112-.118-.249-.066-.142.055-.292-.019-.351-.172-.056-.147-.244-.267-.418-.267-.173 0-.306-.056-.296-.125.085-.537-.062-.85-.445-.946-.24-.06-.574-.359-.766-.684-.188-.318-.406-.578-.485-.578-.206 0-.834-.691-.984-1.084-.136-.353-3.671-.534-3.672-.188 0 .08-.132.043-.292-.083-.266-.208-.271-.202-.057.07m3.868.826c.109.207.618.808 1.131 1.337.513.53 1.045 1.206 1.183 1.503.361.782.953 1.575 1.954 2.619.484.504.922 1.048.974 1.208.052.16.162.292.246.292.154 0 1.659 2.185 1.659 2.408 0 .066.45.563 1 1.105.55.541 1 1.06 1 1.152 0 .093.115.168.256.168.146 0 .401.338.595.792.187.435.447.851.578.925.131.073.238.229.238.347 0 .118.281.484.625.814.854.819 1.088 1.104 1.507 1.833.198.345.437.72.531.833 1.566 1.877 2.142 2.655 2.233 3.016.112.446.628.691 1.215.577.361-.071.394-1.406.074-2.97-.125-.612-.183-3.717-.175-9.34l.012-8.422.471-.208c.307-.137 1.096-.192 2.279-.161l1.808.047.107.5c.268 1.258.156 30.711-.118 30.816-.477.183-3.736.115-3.736-.079 0-.099-.297-.492-.66-.875a49.132 49.132 0 0 1-1.166-1.278c-.279-.321-.689-.788-.912-1.037-.222-.25-.616-.834-.875-1.299-.259-.464-.869-1.273-1.356-1.796-.486-.523-1.004-1.177-1.149-1.452-.373-.705-1.014-1.541-1.852-2.415-.396-.413-.829-.958-.962-1.21-.134-.252-.304-.458-.379-.458-.075 0-.34-.375-.59-.833-.249-.459-.526-.834-.615-.834-.088 0-.211-.129-.271-.287-.061-.158-.546-.724-1.079-1.258-.532-.534-.967-1.072-.967-1.195s-.113-.267-.25-.32c-.137-.052-.408-.422-.601-.82-.194-.399-.551-.86-.793-1.026-.242-.166-.655-.742-.917-1.281-.407-.833-.545-.979-.925-.979-1.003 0-1.082.631-.264 2.094l.583 1.043v8.526c0 5.558-.06 8.637-.173 8.848-.199.371-4.86.506-5.083.146-.173-.28-.151-30.984.022-31.157.084-.084.828-.178 1.652-.209s1.552-.072 1.618-.09c.065-.019.208.134.317.34m77.772 1.076c.206.04.544.04.75 0 .206-.039.037-.072-.375-.072s-.581.033-.375.072m-.292.383c0 .091-.109.166-.242.166-.134 0-.646.394-1.14.876l-.896.875-.101 1.554c-.055.855-.173 1.642-.262 1.75-.089.107-.367.71-.618 1.338l-.457 1.143-1.059-.067c-.939-.06-1.058-.034-1.058.238 0 .402-.482 1.127-.749 1.127-.642 0-.854 1.006-.331 1.571.234.252.544.64.689.86.208.319.407.402.96.402 1.863 0 1.75-.535 1.771 8.419l.018 7.587.488.534c.268.294.487.63.487.747 0 .426.657.88 1.273.88.67 0 1.487.683 1.324 1.107-.075.197.309.227 2.363.189 2.303-.044 2.457-.067 2.514-.38.126-.69.521-.916 1.6-.916h1.022l.414-.897c.449-.971.256-2.265-.392-2.628-.142-.079-.309-.374-.37-.654-.062-.281-.237-.557-.388-.614a1.3 1.3 0 0 1-.479-.364c-.183-.234-.204-.233-.209.013-.004.22-.238.287-1.213.345-2.274.135-2.2.376-2.141-6.946l.045-5.661.411-.381c.559-.518 1.958-.547 2.226-.047.217.405 1.5.493 1.5.104 0-.126.208-.316.461-.421 1.074-.445 1.108-4.183.038-4.183-.188 0-.386-.112-.438-.25-.053-.137-.276-.25-.495-.25-.244 0-.399.098-.399.25 0 .202-.258.25-1.321.25-.953 0-1.392-.069-1.572-.25-.137-.137-.368-.25-.512-.25-.299 0-.297.013-.263-2.781.033-2.74-.089-3.45-.698-4.059-.495-.495-1.801-.732-1.801-.326m1.8 1.533c.14.139.2 1.036.2 2.963 0 3.774-.139 3.628 3.563 3.74 2.276.07 2.229.036 2.164 1.546-.059 1.369-.073 1.378-2.143 1.384-1.74.006-3.001.267-3.26.677-.249.393-.2 12.873.051 13.183.553.679 2.004 1.206 2.356.854.514-.514 1.936-.475 1.936.054 0 .11.262.515.583.899.994 1.19.195 2.829-1.382 2.836-.862.003-2.04.383-2.227.717-.247.44-2.231.402-2.471-.048-.125-.232-.429-.361-1.046-.443-.923-.123-1.659-.699-2.618-2.05l-.422-.595-.049-7.474c-.056-8.688-.034-8.586-1.765-8.467-.751.051-1.061-.115-1.256-.674-.278-.797-.222-1.081.32-1.635.275-.282.5-.584.5-.673 0-.088.296-.161.658-.161 1.505 0 2.236-1.147 2.484-3.892.126-1.396.208-1.701.545-2.034.218-.215.493-.507.611-.649.266-.32 2.361-.365 2.668-.058m1.919 3.05c.001.55.032.755.069.455a4.447 4.447 0 0 0-.002-1c-.038-.25-.068-.005-.067.545m-54.966 1.921c.172.279-.093 1.162-.349 1.162-.201 0-.237 1.025-.239 6.709-.001 3.689-.05 7.816-.109 9.171-.095 2.198-.079 2.452.155 2.362.576-.221 1.123.402 1.123 1.278 0 .578.066.814.228.814.126 0 .406.258.622.574.217.316.564.652.772.746.208.095.378.278.378.407 0 .248.478.43 1.166.443.551.01 1.198.555 1.066.898-.09.235.192.265 2.5.265 2.227 0 2.601-.037 2.601-.256 0-.661.514-1.077 1.333-1.077.655 0 .81-.059.882-.334.058-.222.227-.333.507-.333.255 0 .556-.172.764-.436.403-.513.73-.114.374.456-.278.444-.242.56.182.591.206.015.712.121 1.125.235 1.41.39 4.203.129 4.672-.436.466-.561.145-21.614-.334-21.96a1.228 1.228 0 0 1-.378-.472c-.086-.23-.316-.261-1.489-.201-1.817.094-2.471-.026-2.471-.451 0-.179-.075-.326-.167-.326-.092 0-.167.273-.167.607 0 .63-.338 1.044-.863 1.054-.749.015-.75.034-.669 7.972.084 8.248.085 8.236-.62 8.528-.27.111-.531.308-.58.438-.173.449-4.6.323-5.019-.144-.737-.818-.747-.847-.498-1.546.427-1.199.352-12.747-.084-12.861-.28-.073-.333-.227-.333-.967 0-.788-.058-.931-.554-1.366-.304-.267-.602-.612-.661-.767-.092-.238-.364-.281-1.769-.281-1.514 0-1.67-.03-1.766-.334-.083-.26-.253-.333-.771-.333-.412 0-.625.065-.56.171m38.036.051c.29.402.252 1.111-.059 1.111-.587 0-1.563.843-1.563 1.35 0 .421-.695 1.317-1.022 1.317-.06 0-.159.203-.222.451-.062.248-.258.552-.434.676-.177.124-.322.414-.322.645 0 .245-.209.629-.5.92-.327.328-.5.668-.5.987 0 .542-.392.678-.567.196a5.37 5.37 0 0 0-.35-.708 2.063 2.063 0 0 1-.247-.875c-.002-.284-.093-.459-.239-.459-.135 0-.352-.347-.505-.807-.148-.444-.454-.969-.68-1.166-.227-.197-.414-.49-.417-.651-.011-.664-1.208-1.736-2.043-1.831-.492-.055-.785-.17-.785-.307 0-.203-3.562-.426-4.334-.271-.925.186-.779 2.648.193 3.255.169.105.307.32.307.477 0 .156.188.486.417.734.229.247.417.614.417.816 0 .385.469.918.809.918.109 0 .243.22.297.488.053.269.277.657.495.863.219.205.399.511.399.678 0 .167.075.304.166.304.092 0 .167.104.167.231s.14.267.311.312c.2.052.351.297.424.686.062.332.204.607.314.609.272.006.875 1.334.67 1.472-.088.059-.209.24-.269.403-.06.162-.278.358-.483.434-.32.118-.367.241-.324.841.043.595-.003.717-.296.794-.191.05-.347.194-.347.321s-.113.231-.25.231c-.139 0-.25.148-.25.333 0 .183-.142.476-.316.65-.174.174-.367.544-.428.822-.109.496-.837.87-1.226.63-.08-.05-.115.216-.077.59.053.53-.008.752-.276 1.001-.189.176-.344.486-.344.689 0 .392-.84.903-1.16.705-.106-.065-.132.078-.07.388.08.401.034.512-.252.603-.427.135-.492 1.091-.101 1.482.137.137.25.321.25.409 0 .228.532.335.919.184.182-.071 1.151-.135 2.153-.141 2.057-.014 2.893-.232 3.034-.792.052-.207.311-.547.576-.756.265-.21.482-.544.483-.743.001-.199.178-.574.393-.833.215-.259.442-.678.503-.93.062-.252.183-.458.271-.458.087 0 .351-.42.586-.934s.537-1.045.671-1.179c.134-.134.244-.347.244-.472 0-.39.267-.418.642-.069.213.199.358.537.358.835 0 .348.179.686.584 1.103.382.394.583.76.583 1.064 0 .316.105.496.333.569.427.135.571.718.364 1.469-.134.484-.121.575.07.501.532-.204 1.026.098 1.138.695.061.321.202.585.313.585.112 0 .489.153.838.34.524.281.806.321 1.613.229 1.534-.173 3.201.052 3.085.417-.078.246.019.293.618.3.391.005.58-.026.42-.068-.383-.1-.369-.403.054-1.12.337-.569.323-1.265-.024-1.265-.085 0-.155-.094-.155-.209 0-.115-.263-.578-.584-1.029-.321-.451-.583-.92-.583-1.042s-.181-.38-.403-.573c-.222-.193-.45-.535-.506-.76-.057-.226-.325-.627-.597-.893-.287-.28-.494-.657-.494-.899 0-.246-.137-.49-.333-.595-.184-.098-.334-.255-.334-.349 0-.094-.262-.515-.583-.935-.362-.474-.583-.95-.583-1.256 0-.352-.095-.516-.335-.579-.629-.164-.771-2.174-.165-2.333.183-.048.333-.157.333-.243 0-.339.671-1.604.896-1.691.132-.05.29-.322.352-.604s.256-.59.432-.684c.176-.094.32-.268.32-.386s.262-.584.583-1.035c.321-.451.584-.91.584-1.02 0-.11.144-.301.321-.424.177-.124.416-.447.531-.718a4.06 4.06 0 0 1 .582-.91c.367-.412.451-.825.417-2.041l-.018-.625h-1.647c-1.507 0-1.655-.029-1.735-.334-.059-.227-.227-.333-.529-.333-.292 0-.402.065-.323.192.081.132.045.147-.115.047-.369-.23-.69-.24-.529-.017m24.442.09c.466.515.35 1.021-.235 1.021-.69 0-.837.466-.72 2.283.126 1.959.545 2.691 1.479 2.582.679-.08.691.186.02.485-.234.103.895.128 3.256.07 2.574-.063 3.738-.033 4.042.106.466.212.582.641.173.641-.149 0-.295.207-.354.5-.055.275-.203.5-.329.5s-.229.075-.229.167c0 .091-.113.166-.25.166-.169 0-.25.17-.25.523 0 .343-.143.655-.417.909-.229.212-.417.531-.417.708 0 .234-.153.352-.553.427-.424.08-.644.263-.934.78-.209.372-.542.742-.738.821-.197.08-.264.149-.15.155.373.019.22.619-.208.814-.286.13-.417.323-.417.614 0 .299-.122.471-.416.583-.229.087-.417.235-.417.329 0 .094-.15.171-.333.171-.223 0-.334.111-.334.333 0 .183-.093.315-.208.292-.134-.027-.226.207-.259.658-.037.508-.136.727-.361.798-.171.055-.386.315-.478.58a1.764 1.764 0 0 1-.597.762c-.237.155-.43.406-.43.559 0 .152-.106.428-.236.614-.203.289-.203.475-.003 1.328.129.546.235 1.231.236 1.523.002.403.093.558.378.647.206.065.42.187.475.273.056.086 1.331.17 2.834.186 2.615.029 2.732.044 2.724.363-.006.235.107.341.382.358.311.02.382-.05.343-.333-.072-.524 1.111-.634 1.246-.117.114.436.401.441.538.009.155-.491.765-.571 2.733-.358 2.652.288 5.169.257 5.292-.065.054-.141.304-.362.556-.492.469-.243.472-.252.783-2.463a2.15 2.15 0 0 0-.18-1.191c-.147-.311-.268-.639-.268-.73 0-.332-.639-.377-5.21-.362-4.736.015-5.072-.01-4.489-.322.182-.097.529-.515.772-.93.243-.414.513-.754.601-.754.088 0 .16-.15.16-.334 0-.184.187-.498.416-.697.23-.199.417-.422.417-.496 0-.073.262-.404.583-.734.321-.33.584-.744.584-.918 0-.175.15-.412.333-.526.183-.115.333-.328.333-.475 0-.146.244-.504.542-.795 1.062-1.037 1.958-2.196 1.958-2.532 0-.088.07-.159.156-.159s.251-.263.367-.584c.116-.321.311-.583.433-.583s.268-.123.326-.272c.096-.249.287-.48 1.556-1.869.232-.254.544-.508.692-.565.747-.287-.136-3.961-.952-3.961-.113 0-.245-.15-.293-.333-.079-.303-.227-.333-1.618-.333-1.396 0-1.539-.03-1.619-.337-.087-.331-.202-.337-6.587-.326-6.226.01-6.488.023-6.23.308m16.125-.088c-.204.245-.09.443.255.443.123 0 .223-.15.223-.334 0-.384-.21-.432-.478-.109m4.228-.057c.183.078.237.148.119.155-.15.008-.169.1-.064.303.257.501.042.708-.736.708h-.736v2.084c0 1.877.029 2.083.293 2.083.162 0 .387.15.502.333.168.27.388.334 1.151.334.519 0 .896.046.84.103-.531.531 1.505.689 5.047.394 1.222-.102.99-.113-1.017-.048-2.252.072-2.614.049-2.701-.176-.087-.228.277-.265 3.018-.308 1.714-.027 3.22-.086 3.346-.132a.24.24 0 0 1 .309.136c.046.124-.072.259-.27.311-.193.051-.351.155-.351.232 0 .078-.294.441-.654.807-.359.367-.701.82-.761 1.007-.059.187-.215.34-.347.34-.131 0-.238.156-.238.346 0 .191-.232.578-.515.861-.283.283-.581.69-.662.904-.082.214-.263.389-.403.389-.139 0-.254.087-.254.194 0 .205-.972 1.14-1.185 1.14-.069 0-.15.206-.179.458-.036.317-.16.474-.403.508-.263.038-.332.143-.279.424.05.259-.111.573-.524 1.024-.328.358-.596.737-.596.841 0 .105-.188.277-.418.382-.23.104-.544.454-.698.776-.154.323-.337.587-.408.587-.07 0-.177.262-.237.583-.075.4-.2.583-.399.583-.939 0-1.442 4.356-.549 4.748.207.091.375.258.375.372 0 .275.521.374 1.834.349 2.83-.055 3.364.005 3.25.365-.087.272-.03.333.306.333.33 0 .395-.066.325-.333-.07-.269-.005-.334.334-.334.338 0 .403.065.333.334-.067.255-.005.333.266.333.241 0 .352-.105.352-.333 0-.226.111-.334.345-.334.269 0 .321.074.239.334-.087.272-.03.333.306.333.332 0 .395-.066.324-.337-.086-.331-.028-.335 3.724-.291 2.772.032 3.802.097 3.776.237-.02.106.074.235.208.287.158.06.245-.01.245-.197 0-.439.478-1.032.831-1.032.839 0 .983-1.002.628-4.374-.046-.443-.616-.485-5.751-.428-3.683.04-4.708.006-4.708-.157 0-.114.104-.208.231-.208.417 0 1.046-.418.971-.644-.041-.122.085-.437.279-.699.194-.262.352-.574.352-.693s.263-.435.584-.702c.32-.268.583-.588.583-.713 0-.124.131-.275.292-.334.397-.146.536-.383.539-.919a.843.843 0 0 1 .402-.717c.22-.144.491-.481.601-.748.111-.268.344-.532.517-.587.174-.055.316-.202.316-.327s.15-.275.333-.334c.183-.058.333-.175.333-.261 0-.085.113-.155.25-.155.18 0 .25-.184.25-.656 0-.509.075-.679.334-.761.183-.058.333-.216.333-.351 0-.135.3-.557.667-.939.366-.382.666-.773.666-.871 0-.097.169-.251.375-.341.207-.091.455-.41.552-.71.096-.3.34-.66.541-.801.916-.642.323-3.904-.71-3.904-.239 0-.336-.285-.27-.791a.2.2 0 0 0-.189-.225c-.118-.009-.028-.077.201-.15.395-.127.389-.135-.125-.15-.436-.014-.541.048-.541.316 0 .306-.111.334-1.361.334-.749 0-1.315-.047-1.258-.104.468-.468-.45-.563-5.453-.563-4.984 0-5.095.007-5.095.333 0 .284-.111.334-.75.334s-.75-.05-.75-.334c0-.255-.107-.33-.458-.321-.406.01-.421.028-.125.155m36.708.025c.114.114.108.333-.02.675l-.188.506-1.417-.075c-.779-.042-1.29-.047-1.134-.01.566.133-.167 1.212-.824 1.212-.266 0-.437.115-.494.333-.048.184-.186.334-.308.334s-.319.14-.439.311c-.209.298-.306.355-.603.355-.075 0-.238.261-.363.579-.125.318-.401.73-.614.916-.213.185-.39.468-.393.629-.008.392-.526.992-.924 1.07-.292.057-.315.188-.262 1.488.063 1.525-.793 3.154-1.163 2.213-.067-.171-.126.589-.131 1.689-.005 1.1.046 1.925.113 1.833.185-.252.539-.278.539-.04 0 .115.15.303.333.418.288.18.334.389.334 1.54 0 .953.059 1.333.208 1.335.427.006.958.782.958 1.4 0 .484.08.635.396.756a.9.9 0 0 1 .496.549c.121.484 1.197 1.625 1.533 1.625.133 0 .242.115.242.256 0 .14.112.298.25.351.137.052.25.2.25.328 0 .136.172.232.417.232.229 0 .579.163.778.361.276.277.582.368 1.304.388 1.01.028 1.638.415 1.535.947-.047.245.237.277 2.687.296l2.74.021.108-.581c.126-.671.313-.755 1.642-.735.832.012 1.014-.045 1.367-.425.223-.241.543-.439.711-.439.167 0 .414-.159.549-.353.417-.602.674-.813.987-.813.823 0 1.599-2.019.926-2.408-.466-.268-2.084-1.888-2.084-2.085 0-.367-1.454-.201-1.553.177-.079.302-.194.343-.827.292-.632-.051-.724-.019-.658.232.042.16.002.292-.09.292s-.206.15-.254.333c-.083.316-.227.333-2.847.333-2.589 0-2.771-.02-2.938-.333-.098-.183-.32-.333-.492-.333-.179 0-.469-.251-.675-.584-.198-.321-.417-.583-.487-.583-.187 0-.513-.791-.513-1.247 0-.251-.122-.436-.333-.503-.247-.078-.333-.252-.333-.668 0-.652.206-.853.504-.493.214.258 12.804.381 13.057.127.056-.056.019-.203-.083-.326-.143-.171-.123-.223.085-.223.148 0 .27-.104.27-.23s.101-.313.224-.416c.424-.351.51-6.021.092-6.021-.394 0-.816-.698-.816-1.349 0-.538-.069-.7-.328-.768-.18-.047-.378-.246-.441-.443-.178-.564-.623-1.096-.921-1.101-.151-.003-.321-.193-.378-.422-.058-.229-.216-.417-.352-.417-.136 0-.247-.067-.247-.149 0-.081-.187-.195-.416-.253-.431-.108-.591-.679-.225-.801.105-.035-.401-.06-1.125-.055-1.315.008-1.317.007-1.37-.45-.029-.252-.141-.466-.25-.475-.108-.009-.009-.077.22-.15.248-.08-.681-.14-2.302-.15-2.016-.013-2.687.033-2.599.175.081.132.045.147-.115.047-.35-.219-.731-.253-.526-.047m4.005.902c.146.262.809.483 2.197.731.469.084.83.263.978.487a.836.836 0 0 0 .689.355c.842 0 3.173 2.725 3.173 3.709 0 .62.241 1.174.747 1.721.307.33.407.576.332.813-.059.187-.096.954-.082 1.705.045 2.463.287 2.385-7.416 2.385-5.827 0-6.051.012-6.469.341-.695.546-.733 1.284-.128 2.432.283.538.515 1.074.515 1.192.001.225.952 1.189 1.8 1.824.274.205.941.476 1.482.603.541.126 1.147.331 1.348.456.305.191.451.192.909.003.3-.123.957-.319 1.462-.436 1.192-.275 1.714-.488 1.976-.804.118-.141.419-.301.67-.357.252-.055.634-.266.851-.469l.393-.369.846.865c1.426 1.455 1.505 1.569 1.288 1.869a4.218 4.218 0 0 0-.351.634c-.087.202-.385.484-.661.626-.276.143-.581.406-.676.585-.102.189-.432.37-.797.435a2.518 2.518 0 0 0-1.082.539c-.394.368-.631.435-1.667.469-1.721.058-2.254.185-2.376.568-.135.428-1.982.493-2.142.075-.152-.397-.928-.619-2.106-.604-1.033.013-1.096-.009-1.367-.482-.242-.421-.385-.495-.962-.495-.564 0-.705-.068-.832-.402-.084-.222-.309-.452-.5-.513s-.477-.307-.634-.548c-.279-.426-.437-.612-1.434-1.701-.344-.377-.488-.716-.512-1.211-.022-.452-.134-.748-.327-.865-.825-.497-.787-.27-.787-4.682 0-4.516.012-4.611.615-4.885.325-.148.407-.31.407-.803 0-.474.125-.74.542-1.153a212.21 212.21 0 0 0 1.702-1.723c.802-.82 1.353-1.239 1.781-1.354.449-.121.634-.269.672-.538.048-.339.149-.373 1.136-.388 1.006-.015 2.752-.405 3.334-.745.415-.242 1.304-.178 1.463.105m-118.672 1.013.375.234.006 6.871c.005 6.443.026 6.913.328 7.538.177.367.324.824.327 1.016.041 2.507 6.45 2.24 8.38-.349.069-.092.122-3.541.119-7.664-.007-8.742-.197-7.976 1.934-7.812.817.063 1.57.034 1.871-.07.44-.154.551-.126.877.222l.374.397.07 10.13c.084 12.076.395 10.766-2.574 10.843-2.496.064-2.732-.037-2.422-1.046.333-1.086-.787-1.536-1.258-.504-.134.295-.323.42-.631.42-.291 0-.624.202-.99.602-.303.33-.633.55-.733.488-.332-.205-2 .244-2.184.589-.274.512-2.519.473-2.866-.049-.211-.319-.427-.38-1.535-.436-1.233-.062-1.297-.085-1.45-.523-.087-.252-.337-.539-.553-.638-.217-.098-.441-.325-.497-.505a.692.692 0 0 0-.431-.411c-.362-.094-.375-.125-.633-1.501-.12-.639-.305-1.068-.545-1.262l-.363-.294.012-8.195c.007-4.507.058-8.268.113-8.357.156-.252 4.422-.02 4.879.266m37.34-.212c.323.199.235.707-.215 1.241-.229.273-.416.552-.416.621 0 .21-1.163 1.891-1.404 2.029-.125.072-.353.393-.506.714-.571 1.194-1.089 2.057-1.418 2.364-.187.174-.339.417-.339.54 0 .123-.338.717-.75 1.319-.955 1.395-.906 2.061.244 3.36.163.184.341.527.397.763.055.236.328.667.605.957.277.29.504.631.504.758 0 .128.123.333.273.458.15.124.402.528.56.898.159.369.407.77.552.89.146.121.349.476.453.79.103.313.261.57.351.57.09 0 .305.32.478.712.174.393.508.894.743 1.114.455.428.439.92-.042 1.272-.355.259-4.995.309-5.299.056-.128-.106-.309-.473-.4-.814-.092-.342-.318-.794-.502-1.006-.183-.212-.334-.51-.334-.662 0-.152-.221-.489-.492-.748-.27-.259-.542-.704-.604-.989-.063-.285-.291-.731-.509-.99-.217-.259-.395-.636-.395-.837 0-.431-.92-1.608-1.258-1.608-.129 0-.359.206-.512.458-.152.252-.417.662-.587.91-.17.248-.309.552-.309.676 0 .123-.188.478-.417.789-.229.311-.417.703-.417.871 0 .169-.262.569-.583.89-.346.346-.583.748-.583.988 0 .223-.139.539-.308.703-.169.164-.447.542-.619.84-.368.638-.121.59-2.823.548-3.196-.05-3.388-.318-1.585-2.204.783-.819 1.2-1.399 1.269-1.766.058-.3.241-.619.407-.708.167-.089.355-.33.419-.537.064-.206.318-.562.565-.792a3.2 3.2 0 0 0 .665-.958c.119-.298.277-.542.351-.542.074 0 .33-.412.568-.916.239-.505.505-.917.592-.917.088 0 .205-.182.261-.405.055-.222.207-.445.336-.494.312-.12.301-1.005-.015-1.268a.748.748 0 0 1-.25-.501c0-.161-.172-.407-.383-.545-.211-.138-.522-.559-.692-.936-.17-.376-.363-.684-.43-.684s-.22-.244-.34-.542c-.12-.298-.353-.692-.518-.875a10.124 10.124 0 0 1-1.446-2.167c-.173-.366-.474-.809-.669-.984-.196-.174-.355-.414-.355-.533 0-.118-.188-.418-.417-.665-1.122-1.211-.521-1.573 2.53-1.525l2.53.041.603.666c.331.367.72.928.863 1.248.144.319.403.76.576.98.173.22.315.504.315.63s.22.532.489.903c.268.372.539.915.601 1.207.267 1.263 1.743 1.778 1.743.608 0-.151.15-.448.333-.659.184-.211.334-.56.334-.775 0-.215.262-.681.583-1.036.321-.356.583-.803.583-.995 0-.192.156-.432.347-.535.191-.102.44-.407.554-.677.114-.271.486-.786.827-1.146l.62-.654 1.957.044c1.077.024 2.048.1 2.16.169m36.685.339c.242.22.35.519.35.969 0 .359.081.803.179.987.151.28.122.35-.174.427-.194.051-.492.364-.663.696-.17.332-.504.785-.742 1.008-.238.222-.433.468-.433.546 0 .079-.413.629-.917 1.224-.504.594-.916 1.15-.916 1.234 0 .148-.974 1.393-1.635 2.092a3.957 3.957 0 0 0-.532.75c-.119.229-.265.454-.325.5-.059.045-.289.345-.511.666-.222.321-.499.683-.617.804-.117.121-.214.32-.214.443s-.45.762-1 1.42c-.55.658-1 1.297-1 1.42s-.225.384-.5.58c-.522.372-.699 1.19-.31 1.431.105.065 2.165.102 4.579.083l4.388-.035.586.586c.551.55.585.648.559 1.591-.048 1.745.49 1.643-8.945 1.696-9.185.051-8.35.214-8.354-1.63-.002-.657-.045-1.306-.097-1.441-.052-.136.028-.348.178-.472.151-.124.399-.361.553-.526.154-.165.49-.518.748-.784.257-.266.51-.747.562-1.07.061-.372.21-.623.408-.686.171-.054.312-.166.312-.249 0-.218 1.518-1.901 1.771-1.963.117-.029.264-.216.327-.417.062-.2.329-.61.591-.911.263-.302.478-.616.478-.7 0-.165 1.275-1.731 2.174-2.67.307-.321.758-1 1.003-1.51.266-.552.72-1.144 1.125-1.465 1.057-.838.95-2.119-.149-1.77-.165.052-2.18.104-4.478.115-4.884.023-5.009-.015-5.009-1.532 0-.424-.083-.855-.186-.957-.9-.9 15.844-1.378 16.836-.48m19.899-.154c.827.345 1.106 2.243.372 2.525-.126.048-.342.372-.481.72-.139.347-.37.677-.513.731a.446.446 0 0 0-.26.389c0 .159-.234.53-.52.825-.285.295-.604.677-.708.849-.104.173-.339.568-.522.878-.183.31-.503.728-.71.928a2.713 2.713 0 0 0-.555.88c-.099.283-.325.561-.503.617-.178.057-.45.304-.604.549-.154.245-.453.671-.665.946-.555.722-.597.784-.949 1.421-.37.67-.995 1.495-1.616 2.136-.239.247-.493.632-.564.856-.071.224-.346.624-.612.89-.433.434-.515.911-.214 1.253.027.031 2.062.048 4.521.037l4.471-.019.5.629c.351.442.506.829.521 1.297.012.366.07.782.13.923.072.171-.063.383-.398.632l-.506.374-7.957-.008c-9.245-.009-8.373.203-8.373-2.033v-1.464l.83-.87c.456-.479.955-1.137 1.108-1.462.153-.326.333-.63.4-.676.068-.046.621-.721 1.229-1.5.608-.779 1.317-1.679 1.576-2 .258-.321.564-.76.679-.977.116-.217.548-.753.961-1.19.413-.438.837-.942.942-1.12.105-.178.491-.758.858-1.288.367-.531.79-1.15.941-1.377.151-.228.507-.555.792-.728.526-.32.737-1.164.351-1.403-.092-.056-2.167-.096-4.611-.089-3.678.012-4.585-.032-5.257-.256l-.813-.27.049-1.274c.048-1.268.051-1.276.548-1.382 1.157-.246 15.516-.157 16.132.101m22.125 2.888c-.557.056-1.242.513-2.227 1.485-.42.415-.653.769-1.415 2.155-.296.537-.116 1.003.522 1.352.839.459 8.583.436 9.095-.027.415-.375.473-1.291.103-1.599-.137-.113-.325-.486-.417-.828-.113-.419-.495-.934-1.179-1.586l-1.012-.966-1.077.1c-.591.056-1.242.046-1.446-.022-.204-.068-.63-.097-.947-.064m3.479.785c.145.138.587.555.981.925.708.663.717.687.667 1.664-.049.964-.389 1.356-.716.827-.06-.097.023-.126.198-.071.281.088.281.081.012-.092-.322-.207-6.308-.147-7.253.073-.574.133-.823-.269-.292-.473.138-.052.25-.289.25-.526 0-.266.223-.659.584-1.03.32-.331.583-.665.583-.742 0-.078.22-.141.489-.141.342 0 .52-.1.594-.334.141-.442 3.453-.511 3.903-.08m-52.415.576c-.24.24-.941.283-1.019.063-.087-.244.809-.569 1.023-.371.1.092.099.205-.004.308m-1.837-.021c.048.078-.866.19-2.032.249-3.259.166-3.819.146-3.929-.14-.108-.282 5.788-.39 5.961-.109m-13.442.313c.298.037.785.037 1.083 0 .298-.037.054-.068-.542-.068-.596 0-.839.031-.541.068m25.604.054c-.191.068-.006.118.479.129.435.009.792-.009.792-.041 0-.126-.975-.193-1.271-.088m19.17 6.742c0 1.283.026 1.786.058 1.117.032-.668.031-1.718-.001-2.333-.032-.615-.058-.068-.057 1.216m-232.002 7.25c0 1.146.027 1.614.059 1.041.033-.573.033-1.51 0-2.083-.032-.573-.059-.104-.059 1.042M183.5 82.472c0 .217-.198.362-.359.262-.173-.107-.024-.401.202-.401.086 0 .157.063.157.139m98.625 5.479c.206.04.544.04.75 0 .206-.04.037-.072-.375-.072-.413 0-.581.032-.375.072m6.417.007c.985.029 2.598.029 3.583 0 .985-.03.179-.054-1.792-.054s-2.777.024-1.791.054" />
        <path fill="#091c10"
            d="M299.546 53.942c-.16.065-.205 3.488-.206 15.534 0 8.498-.046 15.68-.102 15.96-.184.919.105 1.024 2.679.974 1.25-.024 2.323-.095 2.386-.157.276-.276.215-31.878-.062-32.155-.259-.259-4.125-.387-4.695-.156m-131.628 1.016c-.824.031-1.568.125-1.652.209-.173.173-.195 30.877-.022 31.157.223.36 4.884.225 5.083-.146.113-.211.173-3.29.173-8.848v-8.526l-.583-1.043c-.818-1.463-.739-2.094.264-2.094.38 0 .518.146.925.979.262.539.675 1.115.917 1.281.242.166.599.627.793 1.026.193.398.464.768.601.82.137.053.25.197.25.32s.435.661.967 1.195c.533.534 1.018 1.1 1.079 1.258.06.158.183.287.271.287.089 0 .366.375.615.834.25.458.515.833.59.833.075 0 .245.206.379.458.133.252.566.797.962 1.21.838.874 1.479 1.71 1.852 2.415.145.275.663.929 1.149 1.452.487.523 1.097 1.332 1.356 1.796.259.465.653 1.049.875 1.299.223.249.633.716.912 1.037.279.32.803.896 1.166 1.278.363.383.66.776.66.875 0 .194 3.259.262 3.736.079.274-.105.386-29.558.118-30.816l-.107-.5-1.808-.047c-1.183-.031-1.972.024-2.279.161l-.471.208-.012 8.422c-.008 5.623.05 8.728.175 9.34.32 1.564.287 2.899-.074 2.97-.587.114-1.103-.131-1.215-.577-.091-.361-.667-1.139-2.233-3.016-.094-.113-.333-.488-.531-.833-.419-.729-.653-1.014-1.507-1.833-.344-.33-.625-.696-.625-.814s-.107-.274-.238-.347c-.131-.074-.391-.49-.578-.925-.194-.454-.449-.792-.595-.792-.141 0-.256-.075-.256-.168 0-.092-.45-.611-1-1.152-.55-.542-1-1.039-1-1.105 0-.223-1.505-2.408-1.659-2.408-.084 0-.194-.132-.246-.292-.052-.16-.49-.704-.974-1.208-1.001-1.044-1.593-1.837-1.954-2.619-.138-.297-.67-.973-1.183-1.503-.513-.529-1.022-1.13-1.131-1.337-.109-.206-.252-.359-.317-.34-.066.018-.794.059-1.618.09M306.242 63c0 3.529.022 4.973.049 3.208.027-1.764.027-4.652 0-6.416-.027-1.765-.049-.321-.049 3.208m-112.867-5.083c.002.366.036.497.076.289.04-.207.039-.507-.003-.666-.042-.16-.074.01-.073.377m53.09.341c-.118.142-.393.434-.611.649-.337.333-.419.638-.545 2.034-.248 2.745-.979 3.892-2.484 3.892-.362 0-.658.073-.658.161 0 .089-.225.391-.5.673-.542.554-.598.838-.32 1.635.195.559.505.725 1.256.674 1.731-.119 1.709-.221 1.765 8.467l.049 7.474.422.595c.959 1.351 1.695 1.927 2.618 2.05.617.082.921.211 1.046.443.24.45 2.224.488 2.471.048.187-.334 1.365-.714 2.227-.717 1.577-.007 2.376-1.646 1.382-2.836-.321-.384-.583-.789-.583-.899 0-.529-1.422-.568-1.936-.054-.352.352-1.803-.175-2.356-.854-.251-.31-.3-12.79-.051-13.183.259-.41 1.52-.671 3.26-.677 2.07-.006 2.084-.015 2.143-1.384.065-1.51.112-1.476-2.164-1.546-3.702-.112-3.563.034-3.563-3.74 0-1.927-.06-2.824-.2-2.963-.307-.307-2.402-.262-2.668.058m71.702 5.731c-.582.34-2.328.73-3.334.745-.987.015-1.088.049-1.136.388-.038.269-.223.417-.672.538-.428.115-.979.534-1.781 1.354a212.21 212.21 0 0 1-1.702 1.723c-.417.413-.542.679-.542 1.153 0 .493-.082.655-.407.803-.603.274-.615.369-.615 4.885 0 4.412-.038 4.185.787 4.682.193.117.305.413.327.865.024.495.168.834.512 1.211.997 1.089 1.155 1.275 1.434 1.701.157.241.443.487.634.548.191.061.416.291.5.513.127.334.268.402.832.402.577 0 .72.074.962.495.271.473.334.495 1.367.482 1.178-.015 1.954.207 2.106.604.16.418 2.007.353 2.142-.075.122-.383.655-.51 2.376-.568 1.036-.034 1.273-.101 1.667-.469.253-.236.74-.478 1.082-.539.365-.065.695-.246.797-.435.095-.179.4-.442.676-.585.276-.142.574-.424.661-.626.088-.202.246-.487.351-.634.217-.3.138-.414-1.288-1.869l-.846-.865-.393.369c-.217.203-.599.414-.851.469-.251.056-.552.216-.67.357-.262.316-.784.529-1.976.804-.505.117-1.162.313-1.462.436-.458.189-.604.188-.909-.003-.201-.125-.807-.33-1.348-.456-.541-.127-1.208-.398-1.482-.603-.848-.635-1.799-1.599-1.8-1.824 0-.118-.232-.654-.515-1.192-.605-1.148-.567-1.886.128-2.432.418-.329.642-.341 6.469-.341 7.703 0 7.461.078 7.416-2.385-.014-.751.023-1.518.082-1.705.075-.237-.025-.483-.332-.813-.506-.547-.747-1.101-.747-1.721 0-.984-2.331-3.709-3.173-3.709a.836.836 0 0 1-.689-.355c-.148-.224-.509-.403-.978-.487-1.388-.248-2.051-.469-2.197-.731-.159-.283-1.048-.347-1.463-.105m-122.088.852c-.055.089-.106 3.85-.113 8.357l-.012 8.195.363.294c.24.194.425.623.545 1.262.258 1.376.271 1.407.633 1.501.18.048.374.232.431.411.056.18.28.407.497.505.216.099.466.386.553.638.153.438.217.461 1.45.523 1.108.056 1.324.117 1.535.436.347.522 2.592.561 2.866.049.184-.345 1.852-.794 2.184-.589.1.062.43-.158.733-.488.366-.4.699-.602.99-.602.308 0 .497-.125.631-.42.471-1.032 1.591-.582 1.258.504-.31 1.009-.074 1.11 2.422 1.046 2.969-.077 2.658 1.233 2.574-10.843l-.07-10.13-.374-.397c-.326-.348-.437-.376-.877-.222-.301.104-1.054.133-1.871.07-2.131-.164-1.941-.93-1.934 7.812.003 4.123-.05 7.572-.119 7.664-1.93 2.589-8.339 2.856-8.38.349-.003-.192-.15-.649-.327-1.016-.302-.625-.323-1.095-.328-7.538l-.006-6.871-.375-.234c-.457-.286-4.723-.518-4.879-.266m37.482.495c-.341.36-.713.875-.827 1.146-.114.27-.363.575-.554.677-.191.103-.347.343-.347.535s-.262.639-.583.995c-.321.355-.583.821-.583 1.036 0 .215-.15.564-.334.775-.183.211-.333.508-.333.659 0 1.17-1.476.655-1.743-.608-.062-.292-.333-.835-.601-1.207-.269-.371-.489-.777-.489-.903s-.142-.41-.315-.63a5.732 5.732 0 0 1-.576-.98c-.143-.32-.532-.881-.863-1.248l-.603-.666-2.53-.041c-3.051-.048-3.652.314-2.53 1.525.229.247.417.547.417.665 0 .119.159.359.355.533.195.175.496.618.669.984.324.687.921 1.583 1.446 2.167.165.183.398.577.518.875.12.298.273.542.34.542s.26.308.43.684c.17.377.481.798.692.936.211.138.383.384.383.545 0 .162.112.387.25.501.316.263.327 1.148.015 1.268-.129.049-.281.272-.336.494-.056.223-.173.405-.261.405-.087 0-.353.412-.592.917-.238.504-.494.916-.568.916-.074 0-.232.244-.351.542a3.2 3.2 0 0 1-.665.958c-.247.23-.501.586-.565.792-.064.207-.252.448-.419.537-.166.089-.349.408-.407.708-.069.367-.486.947-1.269 1.766-1.803 1.886-1.611 2.154 1.585 2.204 2.702.042 2.455.09 2.823-.548.172-.298.45-.676.619-.84.169-.164.308-.48.308-.703 0-.24.237-.642.583-.988.321-.321.583-.721.583-.89 0-.168.188-.56.417-.871.229-.311.417-.666.417-.789 0-.124.139-.428.309-.676.17-.248.435-.658.587-.91.153-.252.383-.458.512-.458.338 0 1.258 1.177 1.258 1.608 0 .201.178.578.395.837.218.259.446.705.509.99.062.285.334.73.604.989.271.259.492.596.492.748 0 .152.151.45.334.662.184.212.41.664.502 1.006.091.341.272.708.4.814.304.253 4.944.203 5.299-.056.481-.352.497-.844.042-1.272-.235-.22-.569-.721-.743-1.114-.173-.392-.388-.712-.478-.712-.09 0-.248-.257-.351-.57-.104-.314-.307-.669-.453-.79-.145-.12-.393-.521-.552-.89-.158-.37-.41-.774-.56-.898-.15-.125-.273-.33-.273-.458 0-.127-.227-.468-.504-.758s-.55-.721-.605-.957a2.096 2.096 0 0 0-.397-.763c-1.15-1.299-1.199-1.965-.244-3.36.412-.602.75-1.196.75-1.319s.152-.366.339-.54c.329-.307.847-1.17 1.418-2.364.153-.321.381-.642.506-.714.241-.138 1.404-1.819 1.404-2.029 0-.069.187-.348.416-.621.933-1.108.595-1.353-1.945-1.41l-1.957-.044-.62.654m25.045-.151c-.475.252-.596.392-.459.529.103.102.186.533.186.957 0 1.517.125 1.555 5.009 1.532 2.298-.011 4.313-.063 4.478-.115 1.099-.349 1.206.932.149 1.77-.405.321-.859.913-1.125 1.465-.245.51-.696 1.189-1.003 1.51-.899.939-2.174 2.505-2.174 2.67 0 .084-.215.398-.478.7-.262.301-.529.711-.591.911-.063.201-.21.388-.327.417-.253.062-1.771 1.745-1.771 1.963 0 .083-.141.195-.312.249-.198.063-.347.314-.408.686-.052.323-.305.804-.562 1.07-.258.266-.594.619-.748.784a7.024 7.024 0 0 1-.553.526c-.15.124-.23.336-.178.472.052.135.095.784.097 1.441.004 1.844-.831 1.681 8.354 1.63 9.435-.053 8.897.049 8.945-1.696.026-.943-.008-1.041-.559-1.591l-.586-.586-4.388.035c-2.414.019-4.474-.018-4.579-.083-.389-.241-.212-1.059.31-1.431.275-.196.5-.457.5-.58 0-.123.45-.762 1-1.42.55-.658 1-1.297 1-1.42s.097-.322.214-.443c.118-.121.395-.483.617-.804.222-.321.452-.621.511-.666.06-.046.206-.271.325-.5.119-.229.358-.567.532-.75.661-.699 1.635-1.944 1.635-2.092 0-.084.412-.64.916-1.234.504-.595.917-1.145.917-1.224 0-.078.195-.324.433-.546.238-.223.572-.676.742-1.008.171-.332.469-.645.663-.696.296-.077.325-.147.174-.427-.098-.184-.179-.628-.179-.987 0-1.332.323-1.281-8.392-1.323-7.477-.036-7.709-.028-8.335.305m20.144-.206c-.497.106-.5.114-.548 1.382l-.049 1.274.813.27c.672.224 1.579.268 5.257.256 2.444-.007 4.519.033 4.611.089.386.239.175 1.083-.351 1.403-.285.173-.641.5-.792.728-.151.227-.574.846-.941 1.377-.367.53-.753 1.11-.858 1.288-.105.178-.529.682-.942 1.12-.413.437-.845.973-.961 1.19-.115.217-.421.656-.679.977-.259.321-.968 1.221-1.576 2-.608.779-1.161 1.454-1.229 1.5-.067.046-.247.35-.4.676-.153.325-.652.983-1.108 1.462l-.83.87v1.464c0 2.236-.872 2.024 8.373 2.033l7.957.008.506-.374c.335-.249.47-.461.398-.632-.06-.141-.118-.557-.13-.923-.015-.468-.17-.855-.521-1.297l-.5-.629-4.471.019c-2.459.011-4.494-.006-4.521-.037-.301-.342-.219-.819.214-1.253.266-.266.541-.666.612-.89.071-.224.325-.609.564-.856.621-.641 1.246-1.466 1.616-2.136.352-.637.394-.699.949-1.421.212-.275.511-.701.665-.946.154-.245.426-.492.604-.549.178-.056.404-.334.503-.617.099-.283.349-.679.555-.88.207-.2.527-.618.71-.928.183-.31.418-.705.522-.878.104-.172.423-.554.708-.849.286-.295.52-.666.52-.825 0-.159.117-.334.26-.389.143-.054.374-.384.513-.731.139-.348.355-.672.481-.72.734-.282.455-2.18-.372-2.525-.616-.258-14.975-.347-16.132-.101m40.65 3.075 1.077-.1 1.012.966c.684.652 1.066 1.167 1.179 1.586.092.342.28.715.417.828.37.308.312 1.224-.103 1.599-.512.463-8.256.486-9.095.027-.638-.349-.818-.815-.522-1.352.984-1.789 1.201-2.06 2.475-3.1.611-.498 1.467-.691 2.114-.476.204.068.855.078 1.446.022m-147.322 9.363c0 4.95.021 6.951.047 4.446.026-2.504.026-6.554 0-9-.026-2.445-.047-.396-.047 4.554m144.63-5.626c.986.03 2.598.03 3.584 0 .985-.029.179-.054-1.792-.054s-2.777.025-1.792.054m-10.476 3.292c.001 1.284.027 1.787.059 1.118a28.79 28.79 0 0 0-.001-2.333c-.032-.615-.058-.068-.058 1.215m.006 7.334c0 2.016.024 2.818.053 1.782a77.282 77.282 0 0 0 0-3.667c-.029-.98-.053-.132-.053 1.885" />
        <path fill="#6fc057"
            d="M105.709 17.024c-.045.17-.172.309-.283.309-.333 0-.874.714-.983 1.296-.192 1.019-1.189 1.871-2.191 1.871-.864 0-1.585.441-1.585.969 0 .109-.12.198-.266.198-.146 0-.305.15-.353.333-.048.183-.191.333-.317.333-.205 0-.299.327-.276.959.007.191-.182.277-.497.228-.068-.011-.125.13-.125.313 0 .184-.069.334-.154.334-.405 0-1.179.885-1.179 1.348 0 .303-.087.485-.232.485-.269 0-.435.355-.435.93 0 .31-.089.403-.383.403-.475 0-.783.293-.783.744 0 .188-.15.436-.334.551-.183.114-.333.348-.333.52a.77.77 0 0 1-.25.519c-.138.114-.25.305-.25.426 0 .12-.142.263-.316.318-.196.062-.357.32-.424.678-.065.345-.206.578-.351.578-.158 0-.242.173-.242.5 0 .275-.057.5-.125.5-.069.001-.343.176-.609.389-.438.35-.542.611-.586 1.466-.007.15-.162.311-.343.359-.181.047-.484.349-.674.671-.19.322-.454.627-.588.678-.133.051-.243.301-.245.556-.003.443-.606 1.214-.949 1.214-.086 0-.228.281-.317.625-.088.344-.251.606-.362.583-.111-.023-.202.109-.202.292 0 .359-.438.876-.888 1.049-.153.059-.288.222-.3.362-.042.52-.068.579-.347.79-.156.119-.322.431-.368.694-.045.264-.105.489-.132.5-.393.171-.707.445-.674.589.023.101-.048.164-.159.141-.205-.043-.242.062-.278.792-.015.298-.115.416-.354.416-.215 0-.334.111-.334.313 0 .213-.157.344-.495.411-.503.101-.675.418-.73 1.343-.014.223-.062.403-.108.4-.357-.025-.5.08-.5.367 0 .185-.111.333-.25.333-.225 0-.324.198-.27.542.011.068-.122.125-.296.125-.359 0-.532.327-.435.825.047.249-.022.341-.259.341-.179 0-.323.114-.323.256 0 .14-.128.304-.285.364-.487.187-1.049.76-1.049 1.07 0 .163-.262.506-.583.762-.368.293-.583.609-.583.856 0 .25-.12.421-.334.477-.183.048-.335.21-.337.36-.002.149-.245.384-.541.522-.432.2-.568.39-.687.958-.087.413-.243.709-.375.709-.198 0-.308.317-.246.708.011.069-.039.106-.111.083-.251-.08-1.203 1.057-1.203 1.439 0 .211-.15.52-.333.686-.183.166-.333.403-.333.526s-.071.224-.158.224c-.394 0-1.009.809-1.009 1.327 0 .398-.087.561-.333.625-.251.066-.334.227-.334.651 0 .374-.079.564-.235.564-.362 0-1.134 1.01-1.042 1.363.05.191-.04.372-.238.478-.175.094-.32.299-.322.457-.002.157-.15.473-.329.702-.18.229-.328.473-.33.542-.002.068-.154.275-.337.458-.221.221-.333.556-.333.992 0 .362-.094.718-.209.791-.361.232-.958 1.645-.958 2.271 0 .43-.095.652-.333.779-.296.158-.334.349-.334 1.673 0 1.35-.03 1.494-.313 1.494-.841 0-.996 1.528-.963 9.472.025 5.99.039 6.231.356 6.463.257.188.291.302.152.522-.186.296.299 1.376.618 1.376.083 0 .15.566.15 1.257 0 1.027.061 1.323.334 1.615.185.199.333.588.333.878 0 .286.11.666.245.843.134.178.247.455.25.614.003.16.155.384.338.499.236.147.334.388.334.821 0 .775.139 1.14.434 1.14.128 0 .232.15.232.333 0 .184.15.484.334.667.183.183.333.446.333.583 0 .138.112.25.25.25.137 0 .256.057.264.125.019.172.116.724.198 1.125.037.184.286.446.553.584.267.137.514.267.55.287.036.021-.027.15-.141.287-.241.29.108.759.564.759.17 0 .262.15.262.43s.232.659.667 1.09c.366.363.666.732.666.82 0 .088.097.16.214.16.118 0 .348.227.512.504.164.277.48.623.703.769.222.146.405.351.405.456 0 .209.672.697.878.638.071-.02.2.152.288.382.087.23.264.418.393.418.13 0 .274.15.322.333.048.183.207.333.353.333s.266.117.266.26c0 .143.074.214.166.157.091-.056.253.09.36.324.106.234.319.426.471.426.153 0 .4.131.549.292.149.16.431.466.625.679.195.214.461.347.592.297.13-.05.237-.024.237.059 0 .29.528.673.928.673.225 0 .405.098.405.221 0 .384.75.946 1.262.946.311 0 .568.122.699.333.115.183.312.333.439.333s.274.113.327.25c.053.138.293.25.533.25.298 0 .466.107.525.334.062.237.237.339.609.352.288.011.598.037.689.058.092.021.261.05.375.064.115.014.209.111.209.214 0 .339.706.811 1.234.825.968.026 1.511.175 1.812.498.165.177.432.322.593.322a.77.77 0 0 1 .475.181c.131.131.213.131.293 0 .241-.39 1.163-.202 1.445.295.339.596.838.686 3.796.689 1.932.001 2.26.041 2.445.293.312.427 4.825.441 5.135.016.168-.229.608-.285 2.628-.334 2.519-.06 2.977-.184 2.977-.807 0-.433 1.515-.588 4.696-.48 1.292.044 1.673.002 1.916-.21.208-.181.798-.298 1.855-.37 1.673-.112 2.121-.261 2.279-.759.083-.263.324-.341 1.344-.437.882-.082 1.243-.182 1.243-.343 0-.125.207-.27.459-.323.805-.167 1.541-.615 1.541-.937 0-.259.136-.307.856-.307.669 0 .923-.079 1.168-.36.171-.198.365-.307.431-.241.065.065.031.173-.076.239-.352.218-.458 2.252-.15 2.869.149.299.271.642.271.762 0 .121.15.299.334.397.183.098.333.275.333.393 0 .27.76.941 1.065.941.126 0 .269.15.317.333.073.282.227.333 1.001.333.659 0 .941.07 1.011.25.054.143.303.25.58.25.267 0 .579-.112.693-.25.132-.159.501-.25 1.019-.25.631 0 .857-.074 1.019-.333.115-.183.284-.336.377-.34.092-.003.319-.247.503-.541.184-.295.503-.61.708-.7.826-.364.465-5.139-.405-5.358-.213-.053-.388-.199-.388-.323 0-.125-.169-.314-.375-.421-.206-.107-.688-.447-1.07-.756-.583-.471-.829-.561-1.535-.561h-.84l.618-.639c.34-.351.75-.686.91-.745.161-.058.292-.215.292-.349 0-.134.168-.268.372-.297.205-.029.524-.294.709-.589.184-.294.436-.538.56-.541.123-.004.26-.138.304-.298.045-.161.319-.443.61-.628s.552-.503.582-.708c.029-.205.162-.373.296-.373.134 0 .291-.131.349-.291.13-.361.542-.774.917-.917.156-.059.332-.373.394-.7.064-.34.209-.592.342-.592.128 0 .234-.093.237-.208.007-.26.49-.816.919-1.058.179-.101.351-.396.381-.655.051-.43.77-1.584 1.07-1.718.068-.03.125-.182.125-.338 0-.155.15-.41.333-.567.224-.192.333-.492.333-.914 0-.448.096-.688.334-.836.183-.115.333-.349.333-.52 0-.171.105-.398.233-.505.127-.106.282-.456.342-.779.061-.322.211-.625.335-.672.141-.054.268-.509.339-1.221.099-.984.176-1.181.582-1.481.453-.334.473-.413.591-2.31.085-1.357.206-2.092.392-2.375.427-.651.406-12.603-.022-12.916-.229-.167-.296-.479-.31-1.445-.029-2.016-.329-3.388-.753-3.449-.36-.051-.556-.655-.56-1.721-.002-.24-.11-.527-.242-.636-.131-.109-.288-.424-.349-.7-.141-.64-.765-1.626-1.036-1.635-.135-.005-.209-.272-.209-.756 0-.568-.08-.799-.333-.957-.183-.114-.333-.327-.333-.472 0-.302-.673-.989-.969-.989-.119 0-.198-.261-.198-.653 0-.825-.135-1.18-.449-1.18-.283 0-.871-.645-.879-.964-.003-.117-.113-.255-.245-.305-.132-.051-.29-.33-.351-.62-.124-.584-.678-1.278-1.022-1.278-.121 0-.221-.15-.221-.333 0-.223-.111-.334-.333-.334-.26 0-.333-.111-.333-.505 0-.33-.101-.541-.292-.61-.419-.151-.875-.659-.875-.977 0-.15-.142-.309-.315-.355-.183-.048-.356-.284-.412-.563-.07-.351-.256-.548-.687-.728-.325-.136-.581-.306-.569-.379.068-.406-.039-.889-.179-.802-.089.054-.266-.147-.395-.449-.128-.302-.466-.773-.75-1.048s-.519-.596-.522-.714c-.002-.117-.134-.263-.292-.324-.331-.127-1.046-.858-1.046-1.07 0-.078-.112-.142-.25-.142-.139 0-.25-.148-.25-.334 0-.222-.111-.333-.333-.333-.188 0-.333-.111-.333-.255a.405.405 0 0 0-.244-.349c-.134-.051-.289-.237-.345-.411-.055-.175-.208-.318-.339-.318-.142 0-.239-.165-.239-.404 0-.46-.745-1.43-1.098-1.43-.13 0-.235-.141-.235-.314 0-.172-.145-.351-.321-.397-.202-.053-.34-.26-.375-.561-.046-.403-.139-.486-.596-.53-.499-.048-.542-.099-.542-.64 0-.449-.079-.61-.333-.676-.183-.048-.333-.225-.333-.393 0-.529-.333-1.065-.842-1.358-.271-.155-.492-.398-.492-.54 0-.141-.099-.257-.22-.257s-.327-.244-.458-.542c-.173-.393-.365-.556-.697-.594-.398-.046-.458-.126-.458-.614 0-.415-.087-.589-.333-.667-.184-.058-.334-.218-.334-.356 0-.137-.262-.497-.583-.8-.375-.353-.583-.704-.583-.981 0-.273-.245-.696-.665-1.147-.365-.394-.665-.81-.667-.924-.001-.115-.114-.209-.252-.209-.152 0-.25-.155-.25-.399 0-.437-.779-1.434-1.12-1.434-.133 0-.213-.224-.213-.599 0-.438-.081-.62-.302-.678-.166-.043-.372-.315-.458-.604-.107-.359-.289-.555-.573-.62-.326-.075-.429-.216-.471-.649-.036-.373-.155-.581-.365-.636-.186-.048-.333-.26-.363-.523-.036-.309-.213-.516-.589-.691-.404-.187-.539-.359-.542-.686-.002-.24-.154-.626-.337-.859-.183-.234-.333-.496-.333-.584 0-.32-.7-1.038-1.012-1.038-.256 0-.322-.118-.322-.577 0-.407-.098-.63-.333-.756-.183-.098-.333-.32-.333-.492 0-.179-.251-.469-.584-.675-.454-.28-.583-.47-.583-.853 0-.349-.188-.683-.646-1.145-.355-.359-.692-.773-.748-.919-.162-.424-2.784-.326-2.897.108m-5.486 8.63a2.146 2.146 0 0 1-.349.994c-.177.239-.418.735-.536 1.102-.118.367-.275.743-.349.837-.073.094-.317.656-.541 1.25a92.39 92.39 0 0 1-.75 1.913c-.479 1.168-.979 2.864-1.105 3.75-.059.412-.321 1.65-.583 2.75-.263 1.1-.529 2.487-.592 3.083a19.614 19.614 0 0 1-.434 2.326c-.55 2.144-.856 9.453-.476 11.374.32 1.615 1.064 3.015 2.497 4.694.846.991 2.499 3.198 3.233 4.316.346.528.715 1.015.821 1.083.105.068.266.246.358.395.091.148.559.786 1.038 1.416.479.631 1.267 1.669 1.75 2.309a31.972 31.972 0 0 0 1.822 2.166l2.417 2.573c.81.862 2.118 2.249 2.907 3.083 2.137 2.257 4.345 4.725 4.551 5.086.1.175.537.816.972 1.423.436.607.923 1.338 1.084 1.625l.792 1.407c.275.488.757 1.357 1.07 1.931.314.574.779 1.418 1.034 1.877.256.458.623 1.17.816 1.583.194.412.488.9.654 1.083.166.184.35.607.41.942.059.334.301.892.537 1.24.345.509.434.85.454 1.749.018.804.107 1.208.317 1.44.16.177.291.451.291.609 0 .158.122.521.27.808.32.619.247 3.972-.108 4.962-.115.321-.307.846-.426 1.167a8.58 8.58 0 0 0-.323 1.125c-.058.298-.242.637-.409.754-.167.117-.387.521-.488.897-.102.377-.302.782-.445.901-.142.118-.371.43-.506.693-.569 1.1-4.305 4.541-5.467 5.034-.606.258-1.143.535-1.193.616-.05.081-.226.147-.392.147s-.515.168-.776.373c-.26.205-.847.504-1.303.665-.456.161-.871.349-.923.418-.148.2-1.18.71-1.434.71-.126 0-.402.179-.612.398-.459.478-1.493.835-1.974.683-.222-.071-.42-.019-.545.141-.334.429-6.621.837-7.003.454-.097-.097-.555-.179-1.018-.183-.463-.004-1.141-.115-1.508-.246s-1.33-.289-2.14-.351c-.999-.076-1.501-.185-1.559-.337-.048-.124-.213-.225-.367-.225-.556 0-2.284-.522-3.056-.924-.434-.225-.989-.41-1.234-.41s-.698-.192-1.007-.428a5.518 5.518 0 0 0-1.297-.679c-.405-.137-.825-.357-.933-.488-.109-.131-.291-.238-.404-.238-.114 0-.483-.188-.82-.417-.338-.229-.731-.416-.874-.416-.143 0-.646-.349-1.118-.774-.472-.426-1.083-.87-1.358-.987-.275-.117-.72-.443-.989-.726-.269-.282-.573-.513-.674-.513-.101 0-.602-.432-1.114-.959a46.988 46.988 0 0 0-2.122-2.014c-.655-.58-1.344-1.33-1.531-1.666a19.735 19.735 0 0 0-1.002-1.528c-.364-.504-.733-1.085-.819-1.292-.086-.206-.238-.375-.336-.375-.099 0-.288-.259-.421-.577-.133-.317-.466-.808-.741-1.089-.276-.282-.501-.65-.501-.819a.754.754 0 0 0-.241-.508c-.133-.11-.328-.475-.434-.812a6.141 6.141 0 0 0-.564-1.195c-.204-.32-.464-.958-.578-1.416-.114-.459-.39-1.072-.612-1.364-.319-.419-.404-.732-.404-1.486 0-.705-.104-1.132-.398-1.636-.331-.565-.419-1.014-.52-2.642-.067-1.078-.188-2.002-.269-2.051-.08-.05-.146-.27-.146-.488 0-.223-.165-.513-.375-.66-.528-.37-.478-5.738.059-6.274.203-.203.316-.55.316-.973 0-.361.075-.703.166-.76.092-.056.167-.424.167-.816 0-1.376.368-3.515.697-4.057.211-.347.312-.77.283-1.179-.046-.634.354-1.722.796-2.164.123-.123.224-.507.224-.853 0-.411.112-.731.324-.922.178-.161.371-.529.429-.818.196-.977.275-1.126.675-1.278.3-.114.427-.322.509-.835.06-.376.23-.801.378-.944.262-.254.596-.821 1.265-2.147.181-.359.5-.865.708-1.124.208-.26.379-.577.379-.705s.186-.355.413-.504c.228-.149.484-.526.57-.837.086-.311.387-.76.67-.997.282-.238.513-.539.513-.669 0-.131.15-.366.334-.523.183-.157.333-.418.333-.581 0-.163.262-.586.583-.941.321-.356.584-.728.584-.828 0-.101.15-.263.333-.361.183-.098.333-.283.333-.411s.265-.557.588-.953l1.458-1.779c.479-.583.946-1.184 1.038-1.336.497-.824 1.651-2.354 1.774-2.354.078 0 .142-.084.142-.187 0-.102.207-.429.459-.725.418-.492.623-.803 1.375-2.08.137-.234.642-.838 1.122-1.342.479-.504.873-.997.875-1.095.003-.194 1.218-1.884 1.549-2.155.112-.091.336-.429.498-.75.715-1.42 1.161-2.09 1.463-2.202.203-.075.326-.276.326-.53 0-.226.096-.51.213-.631.851-.88 1.787-2.229 1.787-2.576 0-.28.157-.499.499-.693.274-.157.499-.382.5-.501.001-.119.178-.381.395-.583.216-.202.552-.667.746-1.034.194-.366.58-.966.856-1.333.277-.367.61-.892.74-1.167.131-.275.386-.657.567-.849.18-.192.446-.576.59-.854.144-.279.377-.551.518-.605.141-.054.384-.365.54-.692.364-.765.81-.724.772.071M211.25 52.333c-.866.876-1.069 1-1.627 1-.553 0-.756.122-1.533.917-.792.811-.972.917-1.566.917-.911 0-.984.227-.282.871.493.453.591.657.591 1.227 0 .472.104.777.334.985.296.268.333.513.333 2.205 0 2.205.551 3.318 1.256 2.538.163-.179.469-.326.681-.326a.695.695 0 0 0 .565-.337c.172-.322.316-.335 3.214-.292l3.034.045.053.459c.06.524.315.485-3.095.476-1.902-.004-2.041.017-2.041.314 0 .419.665.538 2.471.445 1.173-.06 1.403-.029 1.489.201.055.15.226.362.378.472.479.346.8 21.399.334 21.96-.469.565-3.262.826-4.672.436-.413-.114-.919-.22-1.125-.235-.424-.031-.46-.147-.182-.591.356-.57.029-.969-.374-.456-.208.264-.509.436-.764.436-.28 0-.449.111-.507.333-.072.275-.227.334-.882.334-.819 0-1.333.416-1.333 1.077 0 .397 1.413.352 1.699-.053.299-.425 2.134-.676 2.134-.292 0 .516.623.579 5.641.574 3.805-.005 5.097.045 5.288.203.191.159.299.163.445.017.119-.119.795-.193 1.759-.193 1.425 0 1.573-.03 1.652-.333.048-.184.161-.334.251-.334.472 0 1.131-.711 1.131-1.221 0-.393.099-.576.375-.697.206-.091.528-.483.714-.871.186-.388.43-.797.542-.908.111-.111.202-.45.202-.753 0-.349.082-.55.225-.55.123 0 .359-.15.525-.333.436-.481.584-.414.584.266 0 .446.08.619.314.681.21.055.347.286.413.698.064.4.301.812.679 1.178.319.31.54.63.489.711-.05.081 0 .256.111.39.111.133.139.243.064.243-.076 0 .29.407.812.905l.95.905 2.565.014c2.242.011 2.579-.022 2.671-.263.17-.442.015-.477-2.207-.496-1.616-.013-2.229-.081-2.611-.29-.275-.15-.588-.274-.695-.274-.108-.001-.248-.245-.313-.543-.133-.614-.324-.785-.878-.789-.359-.002-.378-.05-.276-.726.106-.711-.16-1.277-.6-1.277-.085 0-.155-.213-.155-.474 0-.317-.194-.674-.583-1.075-.405-.417-.584-.755-.584-1.103 0-.298-.145-.636-.358-.835-.375-.349-.642-.321-.642.069 0 .125-.11.338-.244.472-.134.134-.436.665-.671 1.179-.235.514-.499.934-.586.934-.088 0-.209.206-.271.458-.061.252-.288.671-.503.93-.215.259-.392.634-.393.833-.001.199-.218.533-.483.743-.265.209-.524.549-.576.756-.141.56-.977.778-3.034.792-1.002.006-1.971.07-2.153.141-.387.151-.919.044-.919-.184 0-.088-.113-.272-.25-.409-.381-.381-.326-1.347.083-1.477.648-.205.416-.777-.291-.718-.57.047-.634.103-.728.635-.057.321-.103-3.542-.103-8.583 0-5.042.059-8.792.13-8.334.071.459.136 2.303.144 4.1.014 3.044.038 3.286.348 3.567.233.21.334.513.334 1s-.101.79-.334 1c-.26.235-.333.513-.333 1.266 0 1.106.2 1.334.731.835.257-.241.592-.351 1.071-.351.762 0 1.026-.687.448-1.167-.486-.403-.35-4.041.172-4.605l.422-.455.828.816c.734.722.828.895.828 1.52 0 .907.16.987.74.373l.471-.499-.355-.331c-.481-.448-.48-1.027.002-.955.197.029.41.165.474.303.064.137.197.409.297.604.099.194.117.419.04.5-.078.08-.166.326-.197.546-.054.39-.253.566-.847.749-.212.066-.292.267-.292.737 0 .434-.109.745-.333.947-.183.166-.333.37-.333.454 0 .084-.256.393-.568.687-.35.33-.601.751-.656 1.099-.062.392-.37.847-1.016 1.5-.887.896-1.153 1.517-.756 1.763.321.198 1.162-.31 1.162-.704 0-.203.157-.515.348-.693.191-.178.333-.499.315-.714-.058-.691-.006-.769.575-.878.467-.088.592-.201.684-.619.062-.282.255-.654.429-.828.174-.174.316-.467.316-.65 0-.185.111-.333.25-.333.137 0 .25-.104.25-.231s.156-.271.347-.321c.293-.077.339-.199.296-.794-.043-.6.004-.723.324-.841.205-.076.423-.272.483-.434.06-.163.181-.344.269-.403.205-.138-.398-1.466-.67-1.472-.11-.002-.252-.277-.314-.609-.073-.389-.224-.634-.424-.686-.171-.045-.311-.185-.311-.312s-.075-.231-.167-.231c-.091 0-.166-.137-.166-.304 0-.167-.18-.473-.399-.678-.218-.206-.442-.594-.495-.863-.054-.268-.201-.488-.326-.488-.327 0-.78-.55-.78-.947 0-.186-.188-.54-.417-.787-.229-.248-.417-.578-.417-.734 0-.157-.138-.372-.307-.477-.972-.607-1.118-3.069-.193-3.255.772-.155 4.334.068 4.334.271 0 .137.293.252.785.307.835.095 2.032 1.167 2.043 1.831.003.161.19.454.417.651.226.197.532.722.68 1.166.153.46.37.807.505.807.146 0 .237.175.239.459.001.252.112.646.247.875.135.229.292.548.35.708.175.482.567.346.567-.196 0-.319.173-.659.5-.987.291-.291.5-.675.5-.92 0-.231.145-.521.322-.645.176-.124.372-.428.434-.676.063-.248.162-.451.222-.451.327 0 1.022-.896 1.022-1.317 0-.501.974-1.35 1.547-1.35.595 0 .292-1.264-.312-1.305-.543-.037-1.402.624-1.402 1.078a.233.233 0 0 1-.238.227c-.132 0-.285.143-.34.318-.056.175-.209.36-.342.411-.132.05-.289.396-.349.768-.08.501-.229.749-.574.952-.485.287-.651.648-.654 1.426-.002.364-.08.459-.378.459-.692-.001-.616-1.3.119-2.014.929-.902.83-2.82-.145-2.82-.184 0-.61-.268-.946-.596l-.611-.597-.425.425c-.234.234-.45.597-.479.805-.086.605-.971.558-.971-.05 0-.753-.222-.803-3.59-.806a768.23 768.23 0 0 1-3.712-.009c-.324-.003-.509-.074-.448-.172.057-.091.274-.166.484-.166.21 0 .517-.15.683-.334.212-.234.513-.333 1.016-.333 1.009 0 1.005-.158-.024-1.174l-.909-.898v-1.326c0-1.025.066-1.398.289-1.646.275-.303.275-.33 0-.531-.189-.139-.289-.437-.289-.864 0-1.005-2.766-3.763-3.244-3.234-.447.494-.774.423-1.506-.327-1.084-1.11-2.174-1.006-3.5.333m87.605.75c-.355.321-.76.584-.899.584-.309 0-.526.496-.312.711.297.296.856-.039.859-.514.001-.246.057-.372.125-.281.073.101 1.315.167 3.122.167h3v32.83l-.567.268c-.311.147-.761.236-1 .198-1.31-.211-2.39-.239-2.562-.067-.458.458-2.254-.382-2.46-1.151-.061-.227-.094-6.096-.075-13.041.024-8.453-.02-12.663-.134-12.733-.094-.058-.121-.025-.06.073s.016.209-.099.248c-.166.055-.216 2.866-.238 13.389l-.028 13.319.434.459.435.458h2.519c1.591 0 2.585.067 2.7.181.13.131.212.131.293 0 .061-.099.411-.181.776-.181.483 0 .776-.112 1.074-.409l.409-.409v-7.165c0-5.058.054-7.198.184-7.278.122-.076.149-.003.08.216-.058.182-.042.499.034.706.29.783 1.202-.477 1.202-1.66 0-1.568-.215-1.826-.902-1.085l-.386.417-.114-1.708c-.063-.94-.101-4.88-.084-8.756.017-3.876-.007-7.084-.053-7.129-.045-.046-.31-.1-.589-.12-.279-.02-.475-.088-.436-.152.367-.596-.871-.968-3.226-.968h-2.376l-.646.583m-132.355.808c-.229.121-.394.32-.366.443.042.18.003.183-.201.013-.323-.268-1.266-.078-1.266.255 0 .134-.131.442-.29.686-.22.335-.305.89-.35 2.286-.032 1.013-.127 1.914-.21 2.001-.2.21-.194 3.481.007 3.683.094.095.177 4.676.208 11.433.048 10.461.072 11.297.343 11.596.16.178.292.48.292.672 0 .624.776 1.06 1.813 1.018.585-.023.94.034.982.16.081.243.909.259 1.146.021.096-.096.76-.195 1.474-.219 1.347-.047 1.918-.363 1.918-1.063 0-.31-1.05-.189-1.479.17-.519.434-4.089.272-4.601-.21l-.42-.394V55.227l.417-.363c.229-.199.416-.421.416-.492 0-.072.301-.102.668-.067.901.086 1.272-.059.997-.39-.253-.306-.942-.317-1.498-.024m3.441.568c.047.179.248.483.447.676.478.461.897.898 1.373 1.429.215.24.506.436.648.436.33 0 .349-.788.021-.863-.131-.029-.487-.423-.792-.875-.305-.452-.667-.842-.805-.867a7.457 7.457 0 0 1-.613-.153c-.302-.09-.35-.053-.279.217m16.226-.126c-.138.089-.176.163-.085.164.09.002-.041.194-.292.426l-.457.424-.022 8.618c-.013 4.74-.056 8.45-.095 8.243-.04-.206-.182-.375-.315-.375-.136 0-.286-.218-.342-.495-.065-.327-.29-.608-.662-.828-.405-.238-.564-.451-.564-.754 0-.312-.087-.423-.333-.423-.185 0-.333-.111-.333-.25 0-.442-.02-.495-.288-.791-.145-.161-.402-.292-.571-.292-.233 0-.308-.126-.308-.516 0-.375-.091-.539-.333-.602-.184-.048-.334-.189-.334-.312 0-.124-.15-.305-.333-.403-.183-.098-.333-.289-.333-.423a.239.239 0 0 0-.232-.244c-.13 0-.277-.241-.334-.55-.083-.438-.223-.594-.686-.761-.45-.163-.582-.303-.582-.621 0-.284-.128-.458-.416-.568-.278-.106-.417-.286-.417-.542 0-.214-.212-.569-.478-.803-.263-.231-.53-.585-.594-.787-.065-.202-.225-.368-.356-.368-.131 0-.239-.136-.239-.301 0-.45-.374-.877-.795-.909-.204-.015-.414-.162-.466-.325-.138-.437-.905-.402-.905.04 0 .186.131.387.291.446.383.141.536.381.539.841.002.206.106.375.232.375.125 0 .406.262.625.582.218.32.492.583.608.583.117.001.284.189.371.418.087.229.278.417.425.417.439 0 .742.439.742 1.076 0 .363.093.636.235.691.129.049.324.307.434.572.11.266.342.528.516.583.173.055.317.189.32.297.002.109.263.385.578.614.316.229.577.541.579.692.003.151.241.425.53.608.355.225.542.488.576.808.027.262.203.578.391.704.187.126.341.314.341.418 0 .105.225.376.5.603.275.227.5.51.5.627 0 .118.192.301.427.408.262.12.464.378.522.669.052.26.272.613.49.784.217.171.394.394.394.497 0 .254.374.904.607 1.055.104.067.237.311.295.542.068.273.221.418.44.418.493 0 .573-.427.174-.934-.345-.439-.349-.551-.349-10.005v-9.561h.389c.502 0 .656-.161.422-.443-.219-.264-.311-.272-.644-.057m5.753.06c-.331.243-.27.387.45 1.068.421.398.461 30.695.04 31.044-.625.519-6.148.348-5.821-.181.055-.088-.037-.216-.203-.284-.167-.068-.31-.217-.319-.332a360.07 360.07 0 0 0-.042-.522c-.023-.288-.295-.446-1.067-.619-.481-.107-.351.618.221 1.228.28.299.592.494.691.432.1-.061.135-.037.078.055-.117.19.758 1.094.986 1.018.082-.028.318.119.524.325.605.604 4.363.572 4.846-.042.18-.229.44-.416.577-.416.438 0 .445-.252.451-15.082.003-9.197.066-14.732.17-15.006.107-.283.108-.54.002-.738-.089-.167-.177-.556-.195-.864-.04-.671-.27-1.188-.473-1.062-.08.05-.193.014-.251-.079-.14-.227-.294-.213-.665.057m105.819.905c-.228.155-.057 4.207.178 4.205.204-.002.316-3.461.129-3.968-.073-.197-.209-.302-.307-.237m-52.51 1.291c-.218.218-.396.504-.396.636 0 .131-.112.283-.25.335-.137.053-.25.246-.25.428 0 .183-.147.469-.326.636-.268.25-.335.569-.375 1.791-.047 1.432-.064 1.491-.465 1.584-.292.068-.432.227-.468.529-.028.237-.234.603-.458.814-.711.668-.551.991.491.991h.899l.45-1.125c.247-.618.522-1.213.611-1.32.089-.108.207-.895.262-1.75l.101-1.554.896-.875c.494-.482 1.006-.876 1.14-.876.133 0 .242-.075.242-.166 0-.406 1.306-.169 1.801.326.609.609.731 1.319.698 4.059-.034 2.794-.036 2.781.263 2.781.144 0 .375.113.512.25.18.181.619.25 1.572.25 1.063 0 1.321-.048 1.321-.25 0-.152.155-.25.399-.25.219 0 .442.113.495.25.052.138.25.25.438.25 1.07 0 1.036 3.738-.038 4.183-.253.105-.461.295-.461.421 0 .389-1.283.301-1.5-.104-.268-.5-1.667-.471-2.226.047l-.411.381-.045 5.661c-.059 7.322-.133 7.081 2.141 6.946.975-.058 1.209-.125 1.213-.345.005-.246.026-.247.209-.013a1.3 1.3 0 0 0 .479.364c.151.057.326.333.388.614.061.28.228.575.37.654.648.363.841 1.657.392 2.628l-.414.897h-1.022c-1.095 0-1.434.204-1.623.977-.124.507 1.923.482 2.296-.028.311-.425 2.141-.395 2.699.044.381.299.69.326 3.773.325 1.848 0 3.28-.053 3.183-.118-.097-.064-.226-.251-.286-.416-.101-.272-.354-.297-2.802-.276-1.562.013-2.734-.044-2.794-.137-.057-.088-.272-.212-.478-.277-.285-.089-.376-.244-.378-.647-.001-.292-.107-.977-.236-1.523-.2-.853-.2-1.039.003-1.328.13-.186.236-.462.236-.614 0-.153.193-.404.43-.559.236-.155.505-.498.597-.762.092-.265.307-.525.478-.58.225-.071.324-.29.361-.798.033-.451.125-.685.259-.658.115.023.208-.109.208-.292 0-.222.111-.333.334-.333.183 0 .333-.077.333-.171 0-.094.188-.242.417-.329.294-.112.416-.284.416-.583 0-.291.131-.484.417-.614.428-.195.581-.795.208-.814-.114-.006-.047-.075.15-.155.196-.079.529-.449.738-.821.29-.517.51-.7.934-.78.4-.075.553-.193.553-.427 0-.177.188-.496.417-.708.274-.254.417-.566.417-.909 0-.353.081-.523.25-.523.137 0 .25-.075.25-.166 0-.092.103-.167.229-.167s.274-.225.329-.5c.059-.293.205-.5.354-.5.318 0 .336-.433.023-.553-.285-.11-.976.352-.845.564.053.086.009.156-.098.156s-.151.112-.099.25c.059.152.001.25-.149.25a.242.242 0 0 0-.244.238c0 .132-.169.291-.375.353-.528.161-.959.575-.959.922 0 .162-.206.54-.458.839-.252.3-.429.587-.394.638.036.051-.087.171-.274.266-.608.312-.874.612-.874.988 0 .204-.15.506-.333.672-.183.166-.333.403-.333.526s-.136.224-.302.224c-.542 0-.871.388-.896 1.058-.016.422-.129.706-.33.832-.168.105-.306.285-.306.4 0 .116-.119.21-.265.21-.146 0-.304.148-.352.328a.681.681 0 0 1-.403.429c-.175.055-.278.165-.23.243.049.079-.046.186-.211.238-.164.052-.392.301-.505.554-.655 1.452-1.187 1.781-1.366.844-.235-1.235-3.865-2.064-4.605-1.052-.327.447-.317.653-.267-5.449l.046-5.616 2.038-.051c2.983-.075 3.287-.033 3.287.449 0 .522.255.663.53.294.41-.549.831-.776 1.504-.81.376-.02.791-.16.944-.318.255-.266.231-.28-.371-.215-.955.103-1.371-.614-1.498-2.585-.117-1.817.03-2.283.72-2.283.542 0 .721-.549.314-.957-.143-.143-.092-.171.208-.113.349.067.357.059.066-.069-.5-.219-1.509-.137-1.455.118.026.117-.032.164-.128.105-.096-.059-.278.141-.407.446l-.234.554-.055-.667-.055-.667-1.25-.019-2.773-.042-1.522-.022.022-2.995c.03-3.923.188-3.73-3.08-3.777-2.279-.033-2.368-.022-2.751.361m-72.517 1.078c.014.183.133.333.263.333.131 0 .335.131.454.292.155.21.267.241.399.111.261-.258.029-.735-.445-.916-.587-.223-.699-.193-.671.18m30.785 5.586-.568.586-.22-.419-.22-.42h-2.595c-2.299 0-2.585.03-2.495.264.055.145.101.295.101.333 0 .038.752.07 1.672.07 1.415 0 1.688.043 1.78.281.059.155.357.5.661.767.499.438.554.576.554 1.386 0 .738.052.902.291.917.697.045 1.132-.072 1.332-.357.117-.168.419-.33.67-.358.73-.084.789-2.502.079-3.183l-.474-.453-.568.586m-8.01-.197a3.485 3.485 0 0 0-.064.29c-.028.144-.256.482-.506.75s-.521.661-.602.873c-.174.454-.184 15.97-.011 16.948.134.757.577.922.671.25.032-.229.115-.455.184-.5.232-.154.337-3.369.339-10.375.002-5.901.038-6.959.239-6.959.244 0 .543-.942.357-1.128-.094-.094-.576-.213-.607-.149m13.846.117c0 .062-.187.314-.416.561l-.417.45V80.5l-.458.02a4.298 4.298 0 0 1-.601-.006c-.314-.056-.774.189-.774.414 0 .41-1.865.327-2.128-.095-.12-.192-.389-.333-.635-.333-.354 0-.408-.058-.318-.341.128-.403-.172-.826-.586-.826-.252 0-.489.503-.569 1.208-.008.068.205.386.473.708l.487.584h2.31c1.832 0 2.328-.048 2.4-.234.049-.13.31-.327.58-.438.705-.292.704-.28.62-8.528-.081-7.938-.08-7.957.669-7.972.527-.01.863-.423.863-1.062v-.614l-.75.038c-.412.022-.75.089-.75.15m26.292.184c.072.275.262.31 1.728.31H239l.018.625c.034 1.216-.05 1.629-.417 2.041a4.06 4.06 0 0 0-.582.91c-.115.271-.354.594-.531.718-.177.123-.321.314-.321.424 0 .11-.263.569-.584 1.02-.321.451-.583.917-.583 1.035 0 .118-.144.292-.32.386-.176.094-.37.402-.432.684-.062.282-.22.554-.352.604-.225.087-.896 1.352-.896 1.691 0 .086-.15.195-.333.243-.606.159-.464 2.169.165 2.333.24.063.335.227.335.579 0 .306.221.782.583 1.256.321.42.583.841.583.935 0 .094.15.251.334.349.196.105.333.349.333.595 0 .242.207.619.494.899.272.266.54.667.597.893.056.225.284.567.506.76.222.193.403.451.403.573 0 .122.262.591.583 1.042.321.451.584.914.584 1.029 0 .115.07.209.155.209.347 0 .361.696.024 1.265-.481.816-.439 1.036.223 1.16 1.715.322 2.589-1.114 1.348-2.213-.339-.3-.584-.673-.584-.889 0-.205-.249-.68-.554-1.056-.304-.376-.602-.815-.661-.975-.059-.161-.222-.292-.363-.292-.182 0-.255-.172-.255-.599 0-.459-.078-.619-.333-.686-.184-.048-.334-.193-.334-.323s-.108-.277-.239-.328c-.132-.05-.287-.304-.344-.564-.057-.26-.212-.514-.344-.564-.131-.051-.239-.307-.239-.57 0-.356-.169-.613-.667-1.013-.367-.294-.667-.644-.667-.778 0-.133-.131-.242-.291-.242-.214 0-.303-.155-.334-.583-.022-.32-.05-.639-.061-.708-.078-.493.068-1.075.334-1.327.172-.164.362-.526.422-.804.06-.282.363-.718.686-.987.409-.341.578-.619.578-.953 0-.291.088-.471.232-.471.127 0 .277-.179.332-.399.055-.219.363-.661.684-.983.417-.417.585-.733.585-1.101 0-.337.087-.526.25-.542.137-.014.34-.033.451-.042.11-.009.245.17.298.398.054.228.314.528.577.666.264.139.617.384.785.545.168.16.56.291.87.291.783 0 .811.246.682 5.972-.165 7.284.025 9.028.982 9.028.199 0 .272.155.272.584 0 .445.069.583.293.583.161 0 .387.15.501.333.115.184.32.334.457.334s.23.087.207.194c-.023.107.202.268.5.358.358.107.542.267.542.472 0 .382 1.122.452 1.265.079.162-.421-.659-1.103-1.326-1.103-.616 0-1.273-.454-1.273-.88 0-.117-.219-.453-.487-.747l-.488-.534-.018-7.587c-.021-8.954.092-8.419-1.771-8.419-.553 0-.752-.083-.96-.402a8.17 8.17 0 0 0-.689-.86c-.523-.565-.311-1.571.331-1.571.27 0 .749-.727.749-1.135 0-.36-.496-.865-.848-.865-.131 0-.323-.136-.426-.301-.203-.325-1.428-.408-1.877-.128-.16.101-.196.086-.115-.046.065-.105.04-.192-.057-.192-.098 0-.178.094-.18.208-.002.162-.033.161-.138-.006-.241-.38-2.336-.234-2.234.155m35.738-.072c.05.257.273.305 1.615.346 1.384.043 1.566.085 1.642.375.047.18.178.327.291.327.517 0 .873.597.994 1.667.243 2.133.242 2.185-.042 2.294-.148.057-.46.311-.692.565-1.269 1.389-1.46 1.62-1.556 1.869-.058.149-.204.272-.326.272-.122 0-.317.262-.433.583-.116.321-.281.584-.367.584a.158.158 0 0 0-.156.159c0 .336-.896 1.495-1.958 2.532-.298.291-.542.649-.542.795 0 .147-.15.36-.333.475-.183.114-.333.351-.333.526 0 .174-.263.588-.584.918-.321.33-.583.661-.583.734 0 .074-.187.297-.417.496-.229.199-.416.513-.416.697 0 .184-.072.334-.16.334-.088 0-.358.34-.601.754-.243.415-.59.833-.772.93-.583.312-.247.337 4.489.322 4.571-.015 5.21.03 5.21.362 0 .091.121.419.268.73.17.357.236.794.18 1.191-.311 2.211-.314 2.22-.783 2.463-.252.13-.502.351-.556.492-.123.322-2.64.353-5.292.065-1.968-.213-2.578-.133-2.733.358-.136.429-.423.428-.535 0-.084-.319-.998-.495-1.253-.24-.587.587.046.721 3.326.707 2.856-.013 3.274.019 3.408.259.247.441 1.9.384 2.144-.073.181-.338.196-.339.531-.042.249.222.364.248.417.097.098-.28 3.726-.294 4.005-.015.142.142.251.144.416.008.13-.108 1.105-.206 2.337-.235 1.619-.038 2.136-.104 2.205-.282.137-.353.119-.356-2.268-.375-2.45-.02-2.817-.067-2.817-.364 0-.11-.168-.273-.375-.364-.893-.392-.39-4.748.549-4.748.199 0 .324-.183.399-.583.06-.321.167-.583.237-.583.071 0 .254-.264.408-.587.154-.322.468-.672.698-.776.23-.105.418-.277.418-.382 0-.104.268-.483.596-.841.413-.451.574-.765.524-1.024-.053-.281.016-.386.279-.424.243-.034.367-.191.403-.508.029-.252.11-.458.179-.458.213 0 1.185-.935 1.185-1.14 0-.107.115-.194.254-.194.14 0 .321-.175.403-.389.081-.214.379-.621.662-.904.283-.283.515-.67.515-.861 0-.19.107-.346.238-.346.132 0 .288-.153.347-.34.06-.187.402-.64.761-1.007.36-.366.654-.729.654-.807 0-.077.158-.181.351-.232.198-.052.316-.187.27-.311a.24.24 0 0 0-.309-.136c-.126.046-1.632.105-3.346.132-2.515.039-3.101.091-3.032.271.062.162.713.254 2.403.341l2.317.12-.263.401c-.145.221-.404.402-.577.402-.173 0-.326.093-.34.208a4.473 4.473 0 0 1-.064.375 3.676 3.676 0 0 0-.058.356c-.01.103-.169.228-.352.276-.243.063-.334.227-.334.602 0 .39-.075.516-.307.516-.169 0-.426.131-.572.292-.266.294-.287.352-.287.772 0 .127-.15.27-.334.318-.185.048-.333.227-.333.402 0 .4-.311.716-.704.716-.375 0-.821.853-.501.959.299.1.076.374-.305.374-.179 0-.323.114-.323.256 0 .14-.11.297-.244.348-.134.052-.289.237-.345.412-.055.175-.205.318-.332.318-.132 0-.278.249-.34.583-.067.354-.207.583-.356.583-.271 0-.869.64-.878.939-.003.104-.155.228-.339.276-.255.067-.333.228-.333.686 0 .599 0 .599-.75.599-.53 0-.75-.068-.75-.232 0-.396-.407-.434-4.657-.434h-4.13l.08-.417c.05-.262.191-.417.381-.417.427 0 1.033-.826.945-1.288-.04-.208.004-.378.097-.378.363 0 1.784-1.656 1.784-2.079 0-.274.093-.421.266-.421.146 0 .304-.15.352-.334.048-.183.178-.333.288-.333.343 0 .927-.813.928-1.293.001-.333.137-.534.5-.741.275-.156.586-.475.693-.708.106-.234.289-.425.405-.425.117 0 .264-.163.327-.362.16-.502.557-.969 1.571-1.846.233-.202.337-.496.337-.958 0-.689.122-.812.466-.467.538.538.989-1.583.714-3.353-.233-1.494-2.18-3.302-2.18-2.024 0 .189-.1.344-.223.344-.336 0-.461-.195-.271-.424.132-.16-.222-.211-1.599-.231-1.617-.024-1.763 0-1.711.273m6.258-.183c-.484.483-.11 1.231.615 1.231.778 0 .993-.207.736-.708-.103-.199-.087-.292.05-.292.11 0 .162-.038.116-.084-.151-.151-1.393-.272-1.517-.147m1.879.255c0 .256.13.31.75.31s.75-.054.75-.31-.13-.309-.75-.309-.75.053-.75.309m11.833-.199c0 .096.08.175.177.175.097 0 .13.075.073.167-.065.106.387.167 1.24.167 1.2 0 1.344-.034 1.344-.311 0-.276-.157-.314-1.417-.342-.899-.02-1.417.033-1.417.144m3.5.015c-.229.07-.319.135-.201.144a.2.2 0 0 1 .189.225c-.066.506.031.791.27.791 1.033 0 1.626 3.262.71 3.904-.201.141-.445.501-.541.801-.097.3-.345.619-.552.71-.206.09-.375.244-.375.341 0 .098-.3.489-.666.871-.367.382-.667.804-.667.939 0 .135-.15.293-.333.351-.259.082-.334.252-.334.761 0 .472-.07.656-.25.656-.137 0-.25.07-.25.155 0 .086-.15.203-.333.261-.183.059-.333.209-.333.334 0 .125-.142.272-.316.327-.173.055-.406.319-.517.587-.11.267-.381.604-.601.748a.843.843 0 0 0-.402.717c-.003.536-.142.773-.539.919-.161.059-.292.21-.292.334 0 .125-.263.445-.583.713-.321.267-.584.583-.584.702s-.158.431-.352.693c-.194.262-.32.577-.279.699.075.226-.554.644-.971.644-.127 0-.231.094-.231.208 0 .163 1.025.197 4.708.157 5.135-.057 5.705-.015 5.751.428.355 3.372.211 4.374-.628 4.374-.353 0-.831.593-.831 1.032 0 .187-.087.257-.245.197-.134-.052-.228-.181-.208-.287.026-.14-1.002-.205-3.768-.237-3.413-.04-3.799-.018-3.75.222.048.234.476.264 3.618.247 3.147-.017 3.6.014 3.879.266.242.219.361.239.511.089.108-.108.519-.196.913-.196.828 0 1.383-.431 1.383-1.073 0-.224.075-.454.167-.51.092-.057.167-.732.167-1.5 0-.769-.075-1.444-.167-1.5-.092-.057-.169-.38-.172-.719-.012-1.386-.489-1.514-5.68-1.524l-3.768-.007.079-.415c.043-.228.146-.374.227-.324.081.051.147.02.147-.068 0-.088.45-.613 1-1.167.7-.704 1-1.134 1-1.433 0-.306.089-.427.313-.427.215 0 .344-.158.414-.507.076-.379.25-.57.687-.752.485-.203.586-.331.586-.743 0-.331.084-.498.25-.498.138 0 .262-.093.276-.208.014-.115.043-.283.064-.375.021-.092.047-.298.058-.458.012-.191.156-.292.415-.292.392 0 .806-.332.757-.607-.063-.351.037-.527.347-.608.183-.048.333-.211.333-.362s.244-.498.542-.77c.298-.272.551-.568.563-.657.011-.09.03-.275.041-.413a.282.282 0 0 1 .276-.25c.141 0 .303-.131.36-.291.058-.161.243-.426.412-.59.213-.207.306-.54.306-1.092 0-.436.088-.881.195-.988.26-.26.256-2.589-.006-2.891a7.362 7.362 0 0 1-.411-.538c-.233-.337-1.115-.471-1.778-.27m19.051.151c-.049.189-.185.343-.302.343-.237 0-.449.411-.293.567.055.055.567.099 1.137.099 1.101 0 1.097.004 1.331-1.097.081-.38-1.773-.293-1.873.088m7.283-.149c-.229.069-.328.133-.22.142.109.009.221.223.25.475.076.656 1.971.825 1.967.175-.005-.8-.851-1.135-1.997-.792M312 64.289c-.138.053-.507.291-.82.529-.314.237-.614.403-.667.367-.053-.035-.202.152-.33.417-.129.265-.317.536-.417.604-.1.067-.112.123-.026.125.281.004-.481.492-.778.497-.285.005-.833.666-.782.944.084.464-.053.866-.318.936-.226.059-.312.254-.332.753-.024.619.004.666.344.577.45-.118.946-.681.954-1.081.003-.161.18-.444.393-.629.213-.186.489-.598.614-.916.125-.318.288-.579.363-.579.297 0 .394-.057.603-.355.12-.171.317-.311.439-.311s.26-.15.308-.334c.057-.218.228-.333.494-.333.411 0 .827-.355 1.004-.859.129-.363-.482-.569-1.046-.352m11.465.325c.045.237.23.429.471.489.219.055.397.167.397.248 0 .082.111.149.247.149s.294.188.352.417c.057.229.227.419.378.422.298.005.743.537.921 1.101.063.197.261.396.441.443.259.068.328.23.328.768 0 .651.422 1.349.816 1.349.418 0 .332 5.67-.092 6.021-.123.103-.224.29-.224.416s-.122.23-.27.23c-.208 0-.228.052-.085.223.102.123.134.275.072.337-.062.063.066.087.284.053.219-.033.427-.148.463-.255.035-.106.125-.156.199-.111.246.153 1.165-.966 1.275-1.554.178-.95-.054-4.027-.328-4.338-.132-.149-.29-.511-.352-.802-.062-.292-.22-.62-.352-.729-.132-.109-.239-.459-.239-.777 0-.438-.081-.6-.334-.666-.246-.064-.333-.227-.333-.622 0-.537-.556-1.259-.969-1.259-.109 0-.198-.101-.198-.225 0-.248-.663-.916-.672-.676-.003.083-.11.012-.239-.158-.128-.169-.308-.262-.4-.205-.091.056-.28-.061-.42-.26-.374-.535-1.238-.557-1.137-.029m-95.298 1.229c0 .27-.075.49-.167.49-.092 0-.167-.267-.167-.593 0-.353.068-.551.167-.49.092.057.167.324.167.593m-56.905.769c-.058.152-.029.355.066.449.095.095.174.364.177.597.003.244.164.54.378.695.37.269.371.267.308-.417-.035-.377-.167-.746-.294-.819-.127-.074-.23-.238-.23-.365 0-.354-.285-.452-.405-.14m135.519.496c-.22.22-.132 2.426.094 2.351.13-.043.227-.466.259-1.122.047-.991-.096-1.487-.353-1.229M277.5 68.99c0 .27.076.537.169.595.279.172 2.831.233 2.831.068 0-.084-.079-.153-.177-.153-.097 0-.13-.075-.073-.167.064-.103-.248-.166-.822-.166-.745 0-.966-.065-1.133-.334-.326-.522-.795-.429-.795.157m39.083-.157c-.074.234-.252.334-.594.334-.269 0-.489.063-.489.141 0 .077-.263.411-.583.742-.361.371-.584.764-.584 1.03 0 .237-.112.474-.25.526-.137.053-.25.201-.25.328 0 .312.743.3 1.06-.017.137-.138.322-.25.411-.25.191 0 .363-.402.363-.847 0-.176.108-.32.24-.32.133 0 .339-.139.459-.309.405-.577 3.967-.723 3.967-.163 0 .076.094.139.209.139.116 0 .225.24.246.541.043.602.412.959.994.959.731 0 .539-1.19-.324-1.998-.389-.365-.827-.778-.972-.916-.45-.431-3.762-.362-3.903.08m-144.416.433c0 .292.108.46.333.519.183.048.333.186.333.307 0 .12.15.266.334.325.183.058.333.213.333.344 0 .132.112.239.25.239.164 0 .25.164.25.48 0 .519.226.783.75.877.207.038.394.265.493.602.088.297.25.541.362.541.111 0 .253.234.316.52.068.308.243.554.43.603.174.045.316.189.316.318 0 .13.112.279.25.332.137.053.25.233.25.4 0 .168.145.351.323.407.193.061.344.284.375.553.039.339.179.488.564.601.465.138.924.671 1.269 1.474.068.161.204.292.301.292s.247.188.334.417c.087.229.278.416.423.416.145 0 .219.072.165.159-.162.263.098 1.008.352 1.008.131 0 .284.131.34.292.168.476.756 1.041 1.083 1.041.499 0 .415-1.056-.113-1.401-.229-.15-.416-.425-.416-.611 0-.227-.167-.397-.508-.515-.359-.125-.536-.315-.602-.644-.053-.265-.228-.501-.408-.548-.174-.046-.316-.202-.316-.348 0-.146-.077-.266-.17-.266-.094 0-.243-.187-.33-.417-.087-.229-.229-.416-.316-.416-.086 0-.209-.234-.271-.521-.068-.308-.243-.553-.43-.602-.174-.046-.316-.174-.316-.284 0-.111-.263-.421-.583-.688-.321-.268-.584-.554-.584-.635 0-.191-.715-.856-1.065-.99-.163-.063-.268-.297-.268-.6 0-.273-.095-.557-.212-.63-.116-.074-.302-.34-.413-.592-.184-.42-.445-.543-1-.471-.115.015-.208-.123-.208-.307 0-.185-.15-.416-.334-.514-.217-.116-.333-.349-.333-.666 0-.519-.373-.834-.989-.834-.259 0-.344.107-.344.433m95.283-.229c-.257.09-.436.249-.398.355.078.22.779.177 1.019-.063.28-.28-.118-.467-.621-.292m-7.177.38c.068.178.347.25.969.25.48 0 1.765.028 2.857.062 1.573.05 1.708.039.651-.052l-1.333-.115 1.468-.031c.929-.02 1.43-.092 1.365-.198-.186-.3-6.093-.218-5.977.084m-6.398.204a5.297 5.297 0 0 1-1.083 0c-.298-.037-.055-.068.541-.068.596 0 .84.031.542.068m32.333.001a9.561 9.561 0 0 1-1.416 0c-.39-.035-.071-.064.708-.064.779 0 1.098.029.708.064m-65.787 1.018c.036.489-.008.692-.142.648-.108-.035-.219-.385-.248-.777-.035-.487.01-.692.142-.648.107.036.219.386.248.777m98.82-.292c-.167.271.168.521.613.458.62-.088.621-.639.001-.639-.276 0-.552.081-.614.181m-97.574 1.485c0 .092-.183.167-.407.167-.224 0-.453-.075-.51-.167-.06-.097.109-.166.407-.166.28 0 .51.075.51.166m99.782.107c-.173.173.045.393.389.393.214 0 .287-.081.222-.25-.098-.256-.422-.332-.611-.143m-99.116 1.403c0 .409-.066.636-.166.574-.283-.175-.187-1.25.111-1.25.03 0 .055.304.055.676m91.445 3.601c-.268.268-.109 1.201.222 1.306.211.067.333.252.333.503 0 .456.326 1.247.513 1.247.07 0 .289.262.487.583.206.333.496.584.675.584.172 0 .394.15.492.333.167.313.349.333 2.938.333 2.62 0 2.764-.017 2.847-.333.048-.183.159-.333.247-.333.087 0 .135-.125.105-.278-.084-.432-1.408-.465-1.768-.045-.409.477-2.555.47-3.036-.011-.183-.183-.475-.333-.649-.333-.173 0-.358-.113-.411-.25-.053-.138-.253-.25-.444-.25-.192 0-.302-.076-.245-.168.057-.092-.013-.213-.157-.268-.143-.055-.26-.243-.26-.419 0-.183-.169-.384-.395-.47-.335-.127-.385-.242-.33-.746.053-.475.008-.596-.217-.596-.155 0-.407-.112-.559-.25-.152-.138-.327-.2-.388-.139m-7.354.347c-.441 1.149.084 3.209.817 3.209.174 0 .256.246.292.875.042.737.104.883.394.924.283.041.336.152.299.625-.027.342.031.576.142.576.103 0 .138.049.078.11-.19.189.244.557.658.557.218 0 .396.085.396.188 0 .104.281.455.625.781.344.325.606.653.583.728-.023.075.09.145.25.155a3.8 3.8 0 0 1 .459.058c.091.021.26.05.375.064.114.014.208.133.208.264 0 .486.858.952 1.661.902.671-.042.762-.006.809.323.071.491 1.468.563 1.561.08.105-.545-.512-.933-1.532-.961-.722-.02-1.028-.111-1.304-.388-.199-.198-.549-.361-.778-.361-.245 0-.417-.096-.417-.232 0-.128-.113-.276-.25-.328a.41.41 0 0 1-.25-.351c0-.141-.109-.256-.242-.256-.336 0-1.412-1.141-1.533-1.625a.9.9 0 0 0-.496-.549c-.316-.121-.396-.272-.396-.756 0-.618-.531-1.394-.958-1.4-.149-.002-.208-.382-.208-1.335 0-1.151-.046-1.36-.334-1.54-.183-.115-.333-.29-.333-.39 0-.267-.47-.223-.576.053m12.209.242c.156.156.245.156.4 0 .156-.155.111-.2-.2-.2s-.355.045-.2.2m4.95 1.92c-.479.117-.916.549-.916.906 0 .47 1.328.446 1.451-.026.095-.363 1.549-.512 1.549-.159 0 .197 1.618 1.817 2.084 2.085.673.389-.103 2.408-.926 2.408-.313 0-.57.211-.987.813-.135.194-.382.353-.549.353-.168 0-.489.199-.714.442-.363.391-.526.439-1.451.423-1.24-.021-1.419.067-1.559.769l-.107.533h.814c.634 0 .861-.074 1.023-.333.134-.215.388-.334.715-.334.684 0 1.472-.43 1.652-.903.114-.3.252-.375.617-.334.625.071 1.22-.086 1.224-.322.004-.243.733-.941.983-.941.104 0 .234-.225.289-.5.055-.275.16-.5.233-.5.608 0 .205-1.605-.536-2.134-.168-.12-.305-.396-.305-.614 0-.249-.124-.435-.334-.502-.183-.058-.333-.213-.333-.344 0-.132-.082-.239-.182-.239-.1 0-.373-.15-.606-.333-.417-.328-2.168-.448-3.129-.214m-48.183.279c-.134.351 1.333 1.802 1.576 1.559.251-.252.245-1.337-.009-1.591-.281-.281-1.456-.257-1.567.032m-57.823 2.611c-.166.269.075 1.023.304.948.313-.103.364-1.124.056-1.124-.138 0-.3.079-.36.176m-34.423.032c-.103.335-.095.608.015.54.12-.074.38.427.406.779.017.224.25.345.489.253.292-.112.119-1.017-.201-1.051-.108-.012-.269-.03-.358-.042-.089-.011-.118-.133-.065-.271.052-.137.013-.25-.089-.25-.101 0-.19.019-.197.042m12.29.236c-.271.271-.109 1.554.223 1.761.183.115.333.338.333.496 0 .158.15.367.333.465.184.098.334.247.334.331 0 .284.803 1.021 1.141 1.047.185.013.322.098.305.187-.016.089.194.242.468.34.273.098.629.31.791.47.376.373 1.388.391 1.527.027.132-.343-.515-.888-1.066-.898-.688-.013-1.166-.195-1.166-.443 0-.129-.17-.312-.378-.407-.208-.094-.555-.43-.772-.746-.216-.316-.496-.574-.622-.574-.162 0-.228-.236-.228-.814 0-.936-.759-1.706-1.223-1.242m88.587 5.012c.082.421.575.459.682.052.072-.277.01-.342-.324-.342-.303 0-.399.078-.358.29m1.302.044c0 .338.316.387.539.083.208-.283.142-.417-.205-.417-.223 0-.334.111-.334.334" />
    </g>
</svg>